<svg version="1.1" id="Layer_1" xmlns="http://www.w3.org/2000/svg" xmlns:xlink="http://www.w3.org/1999/xlink" x="0px" y="0px"
	 width="100%" viewBox="0 0 299 290" enable-background="new 0 0 299 290" xml:space="preserve">
<path fill="#010101" opacity="1.000000" stroke="none" 
	d="
M299.614441,4.682265 
	C300.000000,98.786743 299.979980,192.573502 300.078369,286.360138 
	C300.082031,289.851898 299.705505,291.120636 295.644043,291.114471 
	C198.859024,290.967194 102.073700,290.978027 5.288572,291.088715 
	C1.794139,291.092712 0.888180,290.509308 0.893554,286.792542 
	C1.028903,193.172531 1.000000,99.552284 1.000000,5.466042 
	C3.214820,2.866348 6.015002,3.528819 8.609999,3.527103 
	C63.900444,3.490541 119.190918,3.500457 174.481384,3.500253 
	C213.617706,3.500109 252.754044,3.489363 291.890320,3.524310 
	C294.349030,3.526505 296.907349,3.017293 299.614441,4.682265 
z"/>
<path fill="#1C1C1C" opacity="1.000000" stroke="none" 
	d="
M1.448540,4.218559 
	C0.076872,0.561906 2.319205,0.975374 4.500014,0.976729 
	C53.333328,1.007074 102.166664,1.000000 151.000000,1.000000 
	C199.500000,1.000000 248.000015,0.987327 296.499878,1.072786 
	C297.717163,1.074931 300.471313,-0.533132 300.000000,3.500000 
	C298.613770,4.855070 297.074646,4.481341 295.606750,4.481616 
	C198.368881,4.499890 101.131027,4.499587 3.893164,4.498399 
	C3.227035,4.498391 2.561672,4.482669 1.448540,4.218559 
z"/>
<path fill="#323232" opacity="1.000000" stroke="none" 
	d="
M1.000000,4.250000 
	C100.354225,4.000000 199.708450,4.000000 299.531342,4.000000 
	C300.000000,4.000000 300.000000,4.500000 300.000000,4.750000 
	C200.645767,4.999389 101.291542,4.998778 1.468657,4.999084 
	C1.000000,5.000000 1.000000,4.500000 1.000000,4.250000 
z"/>
<path fill="#86D17C" opacity="1.000000" stroke="none" 
	d="
M193.229004,141.863007 
	C192.571472,143.651718 192.164337,145.151947 191.593338,146.586945 
	C190.678650,148.885757 192.536148,147.787750 193.661636,148.007431 
	C195.682785,146.967773 197.478317,146.119324 198.208252,143.851135 
	C198.131699,143.536682 198.225739,143.228745 198.378113,143.176788 
	C202.317215,142.492828 203.480652,138.278122 207.088684,136.902298 
	C207.501404,136.640503 207.654953,136.524597 208.009064,136.208206 
	C208.335327,135.868271 208.460999,135.728806 208.748184,135.354126 
	C209.006195,134.949814 209.102692,134.780762 209.369476,134.367401 
	C210.252991,133.224197 211.259003,133.006866 212.656998,132.949188 
	C215.253616,134.427994 217.444733,136.008011 220.194672,137.323318 
	C220.552338,137.804047 220.661285,138.022095 220.831940,138.601044 
	C220.865402,139.203354 220.837112,139.444778 220.661133,140.017792 
	C216.245483,141.927429 212.957169,144.651947 210.658630,148.998566 
	C210.471161,149.546967 210.399933,149.767609 210.148178,150.285461 
	C209.140015,151.700897 207.601257,151.859131 206.575684,153.243408 
	C206.264923,153.719635 206.138336,153.911255 205.778961,154.360123 
	C204.490311,155.480865 203.419601,156.329193 202.394791,157.755920 
	C201.961884,158.209625 201.770264,158.377853 201.251129,158.754196 
	C196.452225,159.997681 193.752274,163.701141 190.346817,166.252228 
	C180.337387,173.750534 169.377106,177.571213 156.821564,176.518982 
	C155.167389,176.380341 153.491699,176.501877 151.475159,176.490234 
	C150.472305,176.475433 149.821289,176.444519 148.886703,176.383636 
	C148.048599,176.443985 147.535095,176.613022 146.848602,177.098328 
	C146.448761,177.338531 146.281235,177.423309 145.867615,177.658295 
	C145.467987,177.933487 145.314484,178.058456 144.957611,178.408569 
	C143.445435,180.731766 143.935806,182.902756 144.552155,185.449036 
	C144.579880,187.255325 143.960571,188.389267 142.481659,189.464478 
	C141.557098,189.785919 141.011765,189.754486 140.101379,189.379059 
	C139.727005,189.197144 139.819321,189.196945 139.815918,189.242981 
	C139.589752,188.477173 138.922073,188.001572 138.177094,187.217804 
	C137.956161,187.018173 138.005630,187.005707 137.990967,187.026596 
	C137.579468,186.546509 137.351410,185.956955 136.986282,185.086823 
	C136.540573,184.031448 136.429535,183.174896 135.670807,182.272308 
	C135.302155,181.886337 135.158020,181.726334 134.829773,181.296539 
	C134.258331,180.209015 133.491013,179.652313 133.025299,178.477295 
	C130.508255,173.601379 129.282623,168.965927 131.851837,163.674072 
	C132.175049,162.628006 132.324707,161.917358 132.451233,160.833740 
	C132.526077,160.235046 132.554962,159.995209 132.696259,159.411301 
	C133.203156,158.197098 133.796341,157.457550 134.554108,156.405548 
	C134.908585,155.941910 135.072495,155.773666 135.535156,155.417740 
	C136.998276,154.761307 138.111450,154.965302 139.520935,155.599640 
	C140.235306,155.931152 140.602036,156.187653 141.165466,156.725540 
	C141.782684,157.468491 142.115906,158.017960 142.789307,158.704193 
	C143.137161,159.101883 143.255051,159.278564 143.522018,159.734360 
	C144.732269,161.946304 146.480316,162.364487 148.827972,162.226501 
	C149.382874,162.308365 149.602448,162.363663 150.133087,162.559753 
	C151.032028,163.049179 151.429749,163.609604 152.209656,164.230194 
	C154.547302,165.545395 156.561615,165.680389 158.745911,163.894760 
	C159.196945,163.590942 159.383896,163.481384 159.858627,163.231079 
	C160.904037,162.773071 161.674881,162.481812 162.601654,161.774307 
	C171.692871,156.266357 175.188843,147.073578 179.363632,138.493774 
	C182.608582,131.824921 185.369888,125.025330 189.861404,118.927887 
	C192.339844,115.563316 192.432465,110.539833 196.075989,107.101875 
	C198.796005,104.723335 201.377396,102.697601 203.047821,99.355003 
	C203.624283,98.751129 204.015030,98.477806 204.763031,98.104736 
	C206.237335,97.688957 207.285019,97.233940 208.385468,96.096214 
	C208.933472,95.775856 209.172302,95.672066 209.791138,95.441406 
	C214.266876,93.509132 217.521774,90.365189 221.633713,88.470291 
	C228.888611,85.127022 236.451996,84.059067 244.273956,84.010567 
	C251.393906,83.966423 258.514313,83.997208 265.634521,84.002861 
	C267.791595,84.004570 269.972565,83.923279 271.922729,85.980843 
	C272.527161,87.667770 272.425232,88.992531 272.474030,90.309196 
	C272.595856,93.597237 271.185364,95.141136 267.756317,95.022537 
	C260.850769,94.783714 253.938065,95.484406 246.579025,94.930130 
	C242.171814,94.120651 238.289093,94.427689 234.193192,95.985596 
	C232.656128,97.420418 230.827240,96.617561 229.252930,97.850273 
	C228.993530,98.133621 228.832184,98.310234 228.725418,98.256302 
	C227.540222,98.546623 226.505936,98.996643 225.234879,99.723419 
	C224.973557,99.941315 224.798508,100.171242 224.654099,100.166428 
	C223.486465,100.614090 222.418457,100.972420 221.281158,101.875450 
	C221.082458,102.148140 221.082306,102.075104 221.114807,102.091766 
	C220.786575,102.286613 220.409286,102.414848 219.713135,102.503021 
	C218.575974,102.676003 217.973236,103.160683 217.371765,104.120789 
	C216.681702,104.974228 215.866669,105.232864 215.465363,106.180527 
	C215.547913,106.468689 215.532898,106.531792 215.500549,106.534103 
	C214.385941,106.298332 214.020081,107.218460 213.451157,108.114700 
	C213.339661,108.313835 213.216431,108.189606 213.270187,108.259094 
	C212.359558,108.316017 212.033768,109.216713 211.620483,110.173866 
	C211.717819,110.482056 211.716583,110.686615 211.615295,110.700928 
	C206.352570,114.394440 204.663879,120.453110 201.213928,125.737457 
	C201.007385,126.028412 200.990189,126.000000 201.006668,126.001495 
	C197.760300,130.829041 195.023483,135.912872 193.229004,141.863007 
z"/>
<path fill="#040605" opacity="1.000000" stroke="none" 
	d="
M161.163391,165.087402 
	C160.890625,164.832535 160.438889,164.758179 160.250565,164.888321 
	C158.366714,166.229370 156.413788,165.962845 154.104858,165.968750 
	C152.566391,165.933640 151.703354,165.180618 150.310944,164.702423 
	C149.719376,164.446228 149.502914,164.336487 148.927734,164.164993 
	C146.532104,162.872360 143.804962,162.770370 142.299698,160.094055 
	C142.121613,159.809326 142.115723,159.887787 142.155060,159.888641 
	C141.397125,159.470215 140.867249,158.773987 140.216644,157.779846 
	C139.976288,157.193680 139.767426,157.002304 139.279541,156.811859 
	C138.270737,156.082504 137.776001,154.740570 136.026993,155.623322 
	C135.715256,155.756409 135.787277,155.966675 135.766937,155.857605 
	C135.468277,157.081802 135.403122,158.494659 134.018982,159.668976 
	C133.704086,159.805313 133.788391,159.820480 133.770416,159.781616 
	C133.546417,160.867691 133.328766,161.990112 132.946045,163.435974 
	C132.435623,164.931931 131.644211,165.819794 130.397034,166.762299 
	C128.114929,167.021332 126.525955,166.452972 125.346176,164.340866 
	C125.036079,163.796539 124.923233,163.573441 124.704460,162.991730 
	C124.533615,162.144745 124.511604,161.654755 124.570145,160.805283 
	C124.639091,160.214676 124.679985,159.981522 124.813217,159.408554 
	C125.071442,158.635925 125.269630,158.218704 125.652687,157.513580 
	C126.423386,155.996155 126.952515,154.739868 127.735809,153.215439 
	C128.334671,152.329147 128.852524,151.843216 129.688812,151.178375 
	C130.195236,150.880875 130.411362,150.789505 130.964355,150.613831 
	C134.005264,150.097229 133.787994,148.486496 132.811447,146.253830 
	C132.730972,144.689636 133.324936,143.567200 133.375336,141.976959 
	C133.596283,141.127945 133.807251,140.676544 134.295471,139.953995 
	C137.747986,136.824692 139.650421,132.825684 143.077103,130.112320 
	C145.041748,128.556656 146.911743,126.994759 149.643082,126.161148 
	C150.536697,125.975143 151.135391,125.949654 152.000488,125.711288 
	C152.900055,125.539001 153.517059,125.528793 154.457596,125.510132 
	C155.442688,125.501884 156.104004,125.500298 157.105255,125.500015 
	C158.362366,125.497833 159.279541,125.498192 160.544205,125.554459 
	C161.353333,125.676270 161.799911,125.813141 162.561676,126.125198 
	C165.330154,127.212486 167.675888,128.348709 170.131348,130.054260 
	C170.663361,130.339615 170.883179,130.443710 171.399872,130.763443 
	C172.049911,131.312317 172.373657,131.671707 172.863770,132.356018 
	C173.164597,132.859940 173.263504,133.070633 173.477341,133.595795 
	C174.457352,135.434525 175.241333,135.126434 176.106110,133.867432 
	C178.327881,130.632935 179.803223,127.010033 181.562698,123.535156 
	C182.871185,120.950943 181.462570,119.186249 179.494995,117.261475 
	C175.479263,108.966217 170.314224,101.990372 163.411758,96.363724 
	C162.204651,95.379730 161.283051,94.303726 161.219315,92.334290 
	C161.370544,91.764503 161.477295,91.550423 161.882248,91.136765 
	C170.267120,93.777115 175.646683,99.875198 180.995789,106.160698 
	C183.528061,109.136276 187.142838,111.266983 185.269577,116.091644 
	C184.923462,116.983055 185.695663,118.026184 186.700516,118.457153 
	C187.709381,118.889839 188.657684,118.615768 189.414658,117.832191 
	C190.356491,116.857254 189.795425,116.053169 189.077820,115.269470 
	C188.347488,114.471886 188.116241,113.487091 188.426926,112.495255 
	C188.865784,111.094269 189.059631,109.214424 190.055923,108.456940 
	C195.556137,104.275078 195.865036,94.591591 204.996292,94.344200 
	C205.472641,94.331299 205.954651,94.528114 206.717010,94.812599 
	C207.655792,95.520561 207.946762,96.208534 207.876282,97.425056 
	C207.567444,98.594566 206.955627,99.072899 205.987152,99.721832 
	C205.369400,99.894356 205.124329,99.974648 204.722382,100.207611 
	C201.386169,101.763077 199.670700,104.464844 198.233780,107.851601 
	C191.344833,117.413681 187.154999,127.992027 182.224960,138.195343 
	C177.701324,147.557510 174.165894,157.703140 164.163055,163.621887 
	C163.331650,164.744492 162.438141,165.135773 161.163391,165.087402 
z"/>
<path fill="#87D37C" opacity="1.000000" stroke="none" 
	d="
M126.303497,161.673767 
	C126.050621,162.113464 125.941559,162.248932 125.765869,162.636627 
	C126.071449,164.369080 126.072578,165.725647 124.181862,166.744751 
	C121.929558,170.056839 119.974388,173.174957 117.907639,176.639465 
	C117.474205,177.337433 117.126152,177.660599 116.437180,178.132614 
	C113.849976,179.183929 112.686592,177.926376 111.932709,176.045898 
	C111.255775,174.357376 110.830963,172.553848 109.295944,170.882965 
	C108.862770,170.117111 108.743729,169.632431 108.743355,168.750412 
	C108.838676,168.141708 108.911217,167.906754 109.168839,167.359680 
	C112.219872,162.488739 115.350304,158.059509 116.451256,152.279907 
	C116.491219,149.599060 117.713593,147.704941 118.751144,145.701874 
	C118.747368,145.659424 118.524277,145.878265 118.379791,145.997467 
	C117.994957,146.284912 117.758766,146.458786 117.328171,146.820480 
	C116.985443,147.124802 116.841263,147.246964 116.468018,147.551834 
	C115.935364,148.007294 115.639954,148.288651 115.106133,148.792114 
	C114.670563,149.119171 114.480453,149.231537 113.971786,149.444183 
	C110.579208,150.400269 108.636383,152.464142 107.325027,155.682007 
	C106.922935,156.437805 106.593796,156.803253 105.897324,157.332886 
	C101.455879,158.009644 98.663818,161.471817 94.355698,162.346313 
	C91.666443,161.479446 89.461655,160.387863 87.034302,158.964783 
	C85.735786,156.494980 87.153976,155.436295 88.665604,154.267166 
	C90.474220,152.868317 92.646812,151.938995 94.337479,149.820160 
	C94.722198,149.370895 94.877884,149.193527 95.329758,148.826569 
	C97.847984,147.665253 99.536362,146.241455 99.949753,143.306870 
	C101.468155,140.355774 103.820374,138.598801 106.134476,136.318878 
	C106.966255,135.609207 107.575333,135.214722 108.547600,134.714142 
	C109.102196,134.471466 109.330818,134.391205 109.911819,134.234741 
	C113.388924,134.598511 114.629158,130.414169 118.181236,131.204605 
	C119.424942,132.046310 120.219803,132.865784 121.032234,133.676453 
	C123.432449,136.071503 126.852699,135.412674 128.265640,131.965530 
	C129.128448,129.860550 130.093506,128.501862 132.436707,128.703842 
	C134.737579,128.902176 135.822388,130.478714 136.312485,132.557770 
	C136.576462,133.677582 137.209396,134.673645 137.374969,136.208221 
	C137.178513,137.889557 136.952820,139.182083 136.219391,140.739014 
	C136.024246,141.339966 135.974869,141.589752 135.719788,141.960754 
	C133.971115,143.624908 132.811005,145.321747 133.553192,148.077728 
	C133.562775,149.925476 132.606476,150.735657 131.133942,151.620453 
	C130.812622,151.837036 130.946564,151.992722 130.889191,151.907837 
	C130.630615,152.384918 130.506546,152.968338 130.152313,153.763748 
	C129.260422,155.296036 128.569016,156.608063 127.865265,158.242508 
	C127.820129,158.939636 127.679634,159.270432 127.274101,159.779160 
	C127.102570,159.995270 126.957710,160.094589 127.007103,160.167206 
	C126.688835,160.527634 126.485794,160.904221 126.303497,161.673767 
z"/>
<path fill="#83D17A" opacity="1.000000" stroke="none" 
	d="
M141.749069,189.389893 
	C142.275970,187.917130 142.572571,186.801178 142.936371,185.345184 
	C143.453461,182.919479 144.988815,182.518509 147.203293,182.573761 
	C151.410919,183.778809 153.511978,187.303589 156.799225,189.264832 
	C168.049637,195.976990 179.439590,200.370621 192.850494,195.379807 
	C197.861298,193.515015 202.833649,192.058395 206.882935,187.890396 
	C207.154327,187.365616 207.249329,187.150681 207.452942,186.600616 
	C207.853165,185.630981 208.269760,185.076843 208.884247,184.244690 
	C209.233185,183.794464 209.380920,183.620117 209.768600,183.200012 
	C210.350021,182.643005 210.708511,182.352753 211.368683,181.869446 
	C211.862427,181.534592 212.071075,181.413284 212.616974,181.153976 
	C214.449173,180.844955 215.629044,179.757126 217.512817,179.585297 
	C221.178894,179.865662 222.490402,182.051727 223.194473,185.321075 
	C223.627655,187.218597 222.678238,188.231567 221.687775,189.635376 
	C221.107697,190.328476 220.707047,190.646774 220.478027,191.221848 
	C220.693970,191.534592 220.685165,191.696289 220.604645,191.704727 
	C220.198578,191.572601 219.817825,191.496674 219.612625,191.708740 
	C215.889618,195.556473 211.495911,198.442230 206.545837,201.063828 
	C205.216187,203.151047 203.044418,203.451965 201.193726,204.821945 
	C200.486771,205.194504 200.068130,205.403305 199.299225,205.657272 
	C197.829300,206.148178 196.515137,205.762894 195.236786,206.711121 
	C194.455933,207.081711 193.905975,207.258362 193.066116,207.406647 
	C186.491669,208.625443 180.139313,207.745926 173.362381,207.961243 
	C170.210083,206.680038 167.464401,205.635803 163.973236,205.750534 
	C163.535660,205.668930 163.403854,205.735672 163.360870,205.675598 
	C163.567459,205.785034 163.817062,205.954529 164.066650,206.124008 
	C164.239426,205.461227 164.039413,204.978119 163.186768,205.100159 
	C162.805038,205.465454 162.623245,205.443741 162.224442,205.253723 
	C161.239365,204.019135 159.885101,203.987183 158.529694,203.355698 
	C158.168152,203.392075 158.085541,203.408127 158.070465,203.368835 
	C153.830139,201.217804 150.578217,197.645233 146.026215,195.378525 
	C145.698929,195.224335 145.782516,195.218048 145.781616,195.259949 
	C145.083511,193.579178 143.959854,192.248856 141.913361,191.419342 
	C141.579834,191.378036 141.787903,191.209305 141.700348,191.310669 
	C141.411865,190.866516 141.380493,190.311401 141.749069,189.389893 
z"/>
<path fill="#89CD7F" opacity="1.000000" stroke="none" 
	d="
M234.782898,121.131302 
	C238.566986,118.032906 243.012482,118.450920 247.151947,117.783340 
	C254.274338,116.634697 261.353851,117.566422 268.447449,118.453224 
	C271.419464,118.824776 272.446655,119.988327 272.016815,122.890282 
	C271.776184,124.514618 271.892365,126.206192 271.978027,127.860725 
	C272.078949,129.809494 271.583740,130.943283 269.311310,131.045044 
	C265.952026,131.195480 262.957275,132.771042 259.500000,134.005051 
	C258.727448,134.335510 258.287964,134.486969 257.444153,134.449020 
	C255.260880,133.533279 255.182480,131.416595 253.983490,130.029221 
	C249.604584,124.962250 244.802551,121.296616 237.562454,123.371529 
	C236.764404,123.600220 235.924850,123.242447 235.024414,122.418701 
	C234.746643,121.909012 234.686447,121.679749 234.782898,121.131302 
z"/>
<path fill="#80B47B" opacity="1.000000" stroke="none" 
	d="
M42.316620,208.460907 
	C38.010483,208.260605 40.025162,205.163345 39.974850,203.379074 
	C39.790627,196.845383 39.937325,196.916779 46.304012,196.797928 
	C54.776314,196.639771 63.259750,197.214417 71.721939,196.323349 
	C85.278473,194.895874 95.742439,188.414093 103.637192,177.012756 
	C104.169540,177.008194 104.394104,177.153732 104.847328,177.630371 
	C105.273254,178.466507 105.365265,178.990005 105.273430,179.923615 
	C103.716835,182.767212 102.967255,185.627975 100.704681,188.068909 
	C93.359856,193.284119 86.241753,198.037781 77.694023,200.212173 
	C69.831146,202.212372 61.875443,200.908615 53.975746,201.358856 
	C51.219337,201.515945 48.297295,200.755920 45.617531,202.965271 
	C45.034954,203.732819 44.720531,204.271912 44.463402,205.162415 
	C44.338085,205.842697 44.256725,206.230408 44.045502,206.892288 
	C43.599022,207.695908 43.092598,208.010620 42.316620,208.460907 
z"/>
<path fill="#90CA86" opacity="1.000000" stroke="none" 
	d="
M246.378189,147.574478 
	C242.481903,156.502029 238.024872,165.059708 232.989807,173.665558 
	C230.746628,171.696075 231.359848,169.755661 232.543304,167.777374 
	C233.998230,165.345306 234.995728,162.802780 234.169373,159.612762 
	C231.563904,160.656601 230.146500,163.913727 226.700043,162.210449 
	C225.867477,161.301346 225.310898,160.424164 225.574753,159.696091 
	C227.638290,154.002457 229.283356,148.027878 235.159225,144.334854 
	C236.086029,144.365723 236.572433,144.540573 237.297455,145.075058 
	C238.899918,146.588135 238.405136,148.792511 240.122360,150.122894 
	C241.933731,149.077438 243.221863,146.742218 246.378189,147.574478 
z"/>
<path fill="#0B110B" opacity="1.000000" stroke="none" 
	d="
M104.986465,156.193817 
	C105.590912,156.034805 105.817894,155.908096 106.056854,155.488922 
	C108.174896,152.592834 110.353233,150.022903 113.686050,148.181976 
	C113.936867,147.952576 113.998680,147.993179 113.975754,147.964081 
	C114.391045,147.401871 114.825798,146.864853 115.819916,146.498444 
	C118.141670,146.139313 118.934151,146.995773 118.233307,148.866348 
	C117.859856,149.863113 116.776596,150.618256 117.419395,152.240265 
	C116.282837,158.098022 112.938423,162.589218 110.155319,167.706360 
	C109.868935,167.931732 109.944870,167.944962 109.924728,167.912109 
	C109.216873,168.908279 109.803520,170.627975 107.815674,171.131256 
	C105.374298,168.494370 107.762115,166.600525 108.571434,164.430771 
	C109.014961,163.241684 110.042732,161.918961 108.930847,160.747330 
	C107.774483,159.528809 106.549133,160.770767 105.314354,161.028671 
	C103.913261,161.321304 102.119148,164.228210 101.042038,160.430771 
	C101.225052,157.876785 103.032150,157.183777 104.986465,156.193817 
z"/>
<path fill="#8BCF82" opacity="1.000000" stroke="none" 
	d="
M99.698578,187.154602 
	C100.057442,184.129211 101.631271,182.165054 103.656342,180.096893 
	C107.247871,180.703568 110.846939,180.778488 113.279999,183.867874 
	C112.027855,185.767044 110.898232,187.353989 109.478638,189.097244 
	C107.138428,190.395096 105.838661,192.352539 104.021629,194.207153 
	C102.836044,195.300964 101.779266,196.075333 100.453522,196.962708 
	C99.981438,197.204407 99.778328,197.333069 99.213455,197.475861 
	C96.087646,196.204605 96.260399,194.011398 97.271454,191.768753 
	C97.931923,190.303802 98.828316,188.933884 99.698578,187.154602 
z"/>
<path fill="#7FCF76" opacity="1.000000" stroke="none" 
	d="
M113.380730,184.059814 
	C109.642097,184.299377 105.996155,184.732544 104.112320,180.195679 
	C103.959953,179.494690 103.989021,179.091248 104.035172,178.383942 
	C105.174889,176.812347 106.352165,175.584030 107.134048,173.685669 
	C107.518768,172.019135 108.463127,171.162735 109.795242,170.223587 
	C113.867104,170.883652 112.912277,175.330292 115.725914,177.079041 
	C117.527107,179.431046 114.653923,180.525635 114.205521,182.703522 
	C113.856628,183.319275 113.730309,183.629410 113.380730,184.059814 
z"/>
<path fill="#859D82" opacity="1.000000" stroke="none" 
	d="
M244.776764,94.196922 
	C251.469528,94.050934 257.724670,94.094536 263.979736,94.087723 
	C270.913055,94.080177 270.913025,94.060120 271.024445,86.469940 
	C270.007080,85.127892 268.868835,84.490677 267.470062,84.516266 
	C258.241425,84.685120 249.003067,84.079590 239.341064,84.806648 
	C238.642044,84.609200 238.384171,84.467033 237.932129,83.930679 
	C237.869522,83.276154 238.001053,83.015823 238.460724,83.044861 
	C249.475555,83.246368 260.162231,83.158493 271.302124,83.083282 
	C271.978729,83.280235 272.202179,83.464516 272.691132,83.992523 
	C273.505157,87.464752 273.170380,90.620476 273.073792,94.160431 
	C272.702301,94.767265 272.504150,94.977180 271.896851,95.328659 
	C271.487640,95.470215 271.572174,95.520348 271.565338,95.471680 
	C271.722198,96.181419 271.423431,96.487045 270.398865,95.981583 
	C266.055664,95.549934 261.975037,95.475914 257.436951,95.499817 
	C255.775604,97.273003 254.245895,97.092331 252.321655,95.972168 
	C249.909836,95.489914 247.796249,95.398590 245.314636,95.192566 
	C244.744110,94.840004 244.541595,94.602150 244.776764,94.196922 
z"/>
<path fill="#8BCF82" opacity="1.000000" stroke="none" 
	d="
M256.733643,133.748810 
	C257.455811,133.996277 257.932770,134.010284 258.767151,134.038803 
	C254.843643,138.204346 250.541534,142.337204 247.222931,147.752319 
	C246.938950,147.944351 246.884369,147.907684 246.858795,147.887024 
	C245.066910,146.521713 244.750565,144.652420 244.896881,142.597488 
	C245.036255,140.640045 245.280014,138.661163 243.994873,136.528259 
	C243.501816,135.235977 243.538132,134.233231 243.422546,132.872955 
	C243.301392,131.206833 243.741669,130.063278 244.660645,128.735931 
	C246.602798,127.586769 248.479233,127.884933 249.284775,129.287766 
	C250.959106,132.203659 253.919022,132.418976 256.733643,133.748810 
z"/>
<path fill="#0E140E" opacity="1.000000" stroke="none" 
	d="
M65.689178,136.157013 
	C69.857346,131.754883 71.376144,126.124283 74.762634,121.195305 
	C75.510445,120.977402 75.969940,121.150490 76.610504,121.753891 
	C76.806152,128.509125 72.428429,133.185730 69.881691,138.596008 
	C68.491325,141.549698 66.513710,144.253082 64.741425,147.458069 
	C64.477417,148.009094 64.374084,148.231598 64.060410,148.758087 
	C62.861130,149.793030 61.975517,150.712631 60.276123,150.762177 
	C59.451817,150.489639 59.093353,150.167862 58.922691,149.361176 
	C59.008301,148.563950 59.020164,148.128693 59.036995,147.366913 
	C59.688492,145.993164 60.203083,144.823151 61.748131,144.192200 
	C61.987461,143.995132 62.004517,143.508163 62.011116,143.264618 
	C63.563328,140.989014 62.777515,137.800003 65.689178,136.157013 
z"/>
<path fill="#88B783" opacity="1.000000" stroke="none" 
	d="
M87.545845,166.479645 
	C82.100121,172.015091 74.775398,173.032181 67.099228,174.161041 
	C61.427731,174.913208 56.126339,174.339386 50.420589,174.323517 
	C49.544441,171.912369 51.173012,170.985352 52.785374,171.044434 
	C61.763126,171.373520 70.256638,168.709229 79.332474,167.007721 
	C82.081215,165.983109 84.336113,164.481659 87.545845,166.479645 
z"/>
<path fill="#8BBB85" opacity="1.000000" stroke="none" 
	d="
M114.750549,86.212494 
	C114.909378,85.787331 114.979919,85.459686 115.015945,85.296036 
	C115.733780,84.068436 116.732864,83.521713 118.301773,83.247833 
	C119.113373,83.068207 119.587219,83.021057 120.426712,82.991592 
	C121.032448,82.955605 121.275688,82.933464 121.877518,82.823242 
	C122.937386,82.468880 123.619370,82.141495 124.765839,82.037437 
	C128.860596,81.985062 132.568039,82.000458 136.669678,82.016464 
	C137.856262,82.049805 138.610260,82.234642 139.694229,82.692642 
	C140.561356,82.923302 141.068130,82.992157 141.956665,83.078682 
	C144.444962,83.816353 146.936356,83.406197 148.816498,85.641037 
	C149.369019,86.125084 149.726105,86.285828 150.385086,86.401306 
	C151.983200,86.192772 153.051285,86.386826 153.005707,88.363724 
	C150.803574,90.556953 148.524979,90.234428 146.241257,89.609100 
	C137.987686,87.349106 129.692993,86.453499 121.264221,88.642761 
	C119.318962,89.148018 117.345039,89.403259 115.215286,87.820114 
	C114.799690,87.205925 114.695709,86.921791 114.750549,86.212494 
z"/>
<path fill="#88B783" opacity="1.000000" stroke="none" 
	d="
M48.289455,173.400986 
	C45.575481,173.731659 43.165554,173.451508 40.401630,173.084747 
	C39.446587,172.360916 39.178146,171.612335 39.467873,170.362030 
	C39.711330,168.600555 39.777092,167.213379 39.745178,165.419006 
	C38.761608,163.877975 38.275970,162.637848 38.789467,160.806335 
	C40.587170,158.632614 42.844318,159.620361 45.146233,159.065338 
	C45.760090,158.929535 46.003708,158.871613 46.608070,158.716675 
	C50.349747,158.838074 52.124817,154.757782 55.952744,155.579529 
	C57.878571,158.356903 56.610565,160.137878 54.577755,161.633087 
	C53.788048,162.213959 52.659927,162.280167 51.923122,162.920929 
	C49.773865,164.790039 45.860161,163.185577 44.583904,166.271057 
	C43.080200,169.906433 48.781216,169.640289 48.289455,173.400986 
z"/>
<path fill="#80B47B" opacity="1.000000" stroke="none" 
	d="
M98.570831,196.915466 
	C99.147293,197.059967 99.354630,197.066620 99.873260,197.074509 
	C93.003761,204.701660 83.446434,206.771133 73.309158,208.305511 
	C72.796906,207.967636 72.677277,207.726883 72.564011,207.082458 
	C73.660194,203.994629 76.011398,203.097717 78.549866,202.891830 
	C83.007225,202.530289 86.967972,200.876968 90.625221,198.518906 
	C93.014252,196.978561 95.468864,196.456070 98.570831,196.915466 
z"/>
<path fill="#9AD495" opacity="1.000000" stroke="none" 
	d="
M72.841240,206.563644 
	C73.087402,207.264908 73.026215,207.533173 72.928627,208.002136 
	C62.958355,209.428696 52.960041,208.365463 42.525902,208.676208 
	C42.212315,208.150101 42.359726,207.682343 42.676357,207.034561 
	C43.794563,205.577316 45.083637,204.936920 46.654606,204.861862 
	C54.405895,204.491547 62.156952,204.393692 69.904808,204.942535 
	C70.923332,205.014694 71.813721,205.427032 72.841240,206.563644 
z"/>
<path fill="#90C589" opacity="1.000000" stroke="none" 
	d="
M129.707779,166.366821 
	C130.638901,165.312515 131.170624,164.407913 131.904770,163.255493 
	C132.439850,162.670761 132.838943,162.505173 133.609390,162.712799 
	C131.492416,168.004059 131.518295,173.106186 134.023773,178.586060 
	C134.519852,179.494156 135.004349,179.997894 135.744781,180.740356 
	C135.991959,180.987442 136.000610,180.999390 136.006409,181.003891 
	C136.807388,181.684052 137.173569,182.631073 137.796875,183.770157 
	C137.987610,184.766678 137.991074,185.526932 137.985428,186.667343 
	C133.669983,182.699326 131.536942,177.087509 128.870697,171.353302 
	C127.586975,169.341721 127.705696,167.828522 129.707779,166.366821 
z"/>
<path fill="#90CA86" opacity="1.000000" stroke="none" 
	d="
M209.343567,136.802109 
	C205.318726,138.442001 203.611923,142.969116 198.881897,143.271118 
	C203.725037,137.084778 210.512878,133.020203 217.164337,128.243286 
	C217.743286,128.117355 217.984741,128.116226 218.432831,128.416840 
	C219.000259,132.330383 216.759857,133.520569 213.365997,133.986740 
	C211.882355,134.075470 210.812180,134.242828 210.107635,135.682312 
	C209.870880,136.192322 209.758240,136.402008 209.343567,136.802109 
z"/>
<path fill="#0E140E" opacity="1.000000" stroke="none" 
	d="
M207.289124,98.066971 
	C206.990967,97.197929 206.990936,96.464622 206.995453,95.364609 
	C209.008209,93.981972 211.118225,93.079895 211.936829,90.321953 
	C211.879822,89.834564 211.748535,89.675598 211.815582,89.279327 
	C213.840179,91.045692 215.189423,89.500290 216.803284,88.216064 
	C217.678894,87.199532 218.630295,86.826324 219.781067,86.203278 
	C221.773376,85.687263 223.524567,85.355690 225.658783,85.004044 
	C226.481140,85.190315 226.868317,85.467842 227.233917,86.186546 
	C221.185623,89.588997 215.459610,93.273415 209.211060,96.761902 
	C208.904175,96.947624 208.970230,96.967537 208.959717,96.934685 
	C208.645020,97.492294 208.286865,98.026237 207.289124,98.066971 
z"/>
<path fill="#8BCF82" opacity="1.000000" stroke="none" 
	d="
M205.402466,201.382370 
	C205.118820,200.809662 205.140854,200.358627 205.365189,200.207092 
	C210.025742,197.058853 214.647217,193.841843 220.152832,191.594162 
	C217.215683,195.387329 213.443298,198.499313 208.899780,201.163284 
	C207.686432,201.587860 206.784851,201.922073 205.402466,201.382370 
z"/>
<path fill="#80B47B" opacity="1.000000" stroke="none" 
	d="
M171.547668,206.785339 
	C178.587723,207.062378 185.163101,207.126923 192.257355,207.284866 
	C185.226456,209.875137 177.615341,209.096359 169.663116,207.578033 
	C169.771271,206.767212 170.355057,206.507812 171.547668,206.785339 
z"/>
<path fill="#88B783" opacity="1.000000" stroke="none" 
	d="
M104.922333,156.064743 
	C103.997780,157.258682 102.690384,158.461090 101.250648,159.906845 
	C96.889198,162.316757 93.626350,166.222000 88.376457,167.089249 
	C88.087891,167.107468 88.008308,166.995392 87.968643,166.939270 
	C87.293671,162.672363 90.566994,162.173218 93.698944,161.142975 
	C98.356323,161.089035 100.444176,156.486954 104.922333,156.064743 
z"/>
<path fill="#0E140E" opacity="1.000000" stroke="none" 
	d="
M46.081905,159.962952 
	C44.505333,161.372879 42.747318,161.116409 40.753513,161.164368 
	C39.823544,160.614410 39.658245,159.989563 40.466354,159.104065 
	C41.152794,158.955460 41.319412,158.947525 41.736168,158.933838 
	C42.409492,158.538559 42.856483,158.188354 43.718285,158.031342 
	C46.110783,157.428009 48.218029,156.845520 50.656502,156.115158 
	C52.425690,153.091003 54.507725,151.097229 58.264481,151.050262 
	C60.561729,153.003189 59.212288,154.233688 57.529121,155.625916 
	C56.961189,155.819351 56.720116,155.849838 56.117050,155.837769 
	C53.090046,157.228729 50.710701,159.206360 47.358719,160.008972 
	C46.999855,160.003052 46.678143,159.654465 46.678143,159.654465 
	C46.678143,159.654465 46.217705,159.768494 46.081905,159.962952 
z"/>
<path fill="#88B783" opacity="1.000000" stroke="none" 
	d="
M201.284576,125.841599 
	C202.982086,120.063133 204.673721,113.917801 211.166138,110.660095 
	C208.196609,115.695099 204.879181,120.674942 201.284576,125.841599 
z"/>
<path fill="#040605" opacity="1.000000" stroke="none" 
	d="
M153.370239,88.297058 
	C152.593338,87.536003 151.857910,87.173683 150.904724,86.583694 
	C150.686966,86.356041 150.829926,86.167732 150.910461,86.081207 
	C151.436401,85.555656 152.039230,85.510826 152.826019,85.169373 
	C154.691147,84.178307 156.309952,84.182785 157.408585,85.735001 
	C158.578674,87.388130 159.901108,87.758057 161.922485,87.719391 
	C165.039215,87.659767 163.276459,89.313538 162.352951,90.701210 
	C162.046036,91.052238 161.911606,91.167290 161.582199,91.462387 
	C157.727859,93.369125 155.269943,91.844017 153.370239,88.297058 
z"/>
<path fill="#90C589" opacity="1.000000" stroke="none" 
	d="
M218.198029,128.480652 
	C217.882172,128.244827 217.690735,128.184738 217.596283,128.151611 
	C222.504639,124.468567 227.815918,121.527252 234.532990,120.846680 
	C234.955444,121.011940 234.971344,121.211769 234.874634,122.074661 
	C231.184265,126.685127 226.610641,128.669067 221.056732,129.488190 
	C219.846085,129.515930 219.125931,129.267456 218.198029,128.480652 
z"/>
<path fill="#1C1C1C" opacity="1.000000" stroke="none" 
	d="
M140.316193,83.714401 
	C139.485886,83.767860 138.915298,83.678307 138.127899,83.385529 
	C133.784973,81.729683 129.516800,82.858887 124.904449,82.454147 
	C124.255951,82.238556 124.034042,82.059082 123.939247,81.470810 
	C130.642700,80.948776 137.240082,80.639015 143.714401,82.136887 
	C145.813766,82.622581 148.468628,82.449318 149.073792,85.688583 
	C146.864044,85.467644 144.716187,84.970947 142.273499,84.257172 
	C141.716125,83.270134 141.094513,83.574860 140.316193,83.714401 
z"/>
<path fill="#040605" opacity="1.000000" stroke="none" 
	d="
M90.354294,101.289154 
	C91.203072,93.401405 92.162117,92.415108 99.668106,92.112015 
	C100.753021,96.527161 95.739655,96.460953 94.526169,99.810829 
	C94.222404,100.305794 94.084862,100.494469 93.666565,100.893600 
	C92.507301,101.450684 91.615799,101.697060 90.354294,101.289154 
z"/>
<path fill="#90C589" opacity="1.000000" stroke="none" 
	d="
M145.856094,195.519714 
	C148.584106,194.874588 151.269012,194.624084 152.678650,198.184525 
	C153.551422,200.388947 156.711273,200.433426 157.942230,202.986603 
	C153.364685,201.909088 149.653107,198.919556 145.856094,195.519714 
z"/>
<path fill="#8BBB85" opacity="1.000000" stroke="none" 
	d="
M89.988007,101.346085 
	C90.683472,100.659401 91.319626,100.197800 92.222176,99.596359 
	C94.283173,99.872742 94.535324,101.533905 93.887245,102.511047 
	C90.973869,106.903786 88.845001,112.175171 82.532455,113.429337 
	C81.737236,112.843491 81.522354,112.348381 81.662857,111.379562 
	C82.166435,110.533173 82.516220,110.073235 82.942932,109.332504 
	C83.813965,107.811409 84.360626,106.396004 85.799515,105.230080 
	C86.340645,105.007355 86.622978,104.915665 86.997284,104.545624 
	C87.220291,103.952393 87.417152,103.602676 87.991638,103.188271 
	C88.274849,103.070427 88.084999,103.079247 88.090935,103.174088 
	C88.187805,102.894661 88.390503,102.592880 88.928566,102.205429 
	C89.501419,102.021309 89.755341,101.859413 89.988007,101.346085 
z"/>
<path fill="#1C1C1C" opacity="1.000000" stroke="none" 
	d="
M239.470703,81.995926 
	C242.459030,80.106827 246.193314,81.146416 249.785950,81.054756 
	C256.560547,80.881912 263.342712,81.004860 270.121765,81.974129 
	C260.055573,81.974129 249.989395,81.974129 239.470703,81.995926 
z"/>
<path fill="#090E09" opacity="1.000000" stroke="none" 
	d="
M129.857880,165.980072 
	C129.666199,167.577316 129.225204,168.937546 128.740875,170.659668 
	C126.181831,171.125168 125.310326,169.217255 124.105118,167.193329 
	C124.303886,165.704407 124.723061,164.470123 125.420746,163.062347 
	C127.002365,163.840256 128.305481,164.791656 129.857880,165.980072 
z"/>
<path fill="#88B783" opacity="1.000000" stroke="none" 
	d="
M193.348618,141.977631 
	C193.489899,135.941635 196.504730,130.886246 200.701843,126.114655 
	C198.563797,131.260162 196.104446,136.517334 193.348618,141.977631 
z"/>
<path fill="#040605" opacity="1.000000" stroke="none" 
	d="
M40.675377,158.769699 
	C40.836346,159.435608 40.686512,159.907822 40.489536,160.749664 
	C40.246365,162.202789 40.050335,163.286285 39.750900,164.690781 
	C36.731655,164.482590 35.236851,162.131866 35.553829,159.798859 
	C35.910259,157.175446 38.468933,158.013596 40.675377,158.769699 
z"/>
<path fill="#040605" opacity="1.000000" stroke="none" 
	d="
M211.937714,88.732925 
	C212.013901,89.042038 212.013260,89.517883 212.012177,89.755707 
	C211.384506,90.207680 210.756592,90.418045 210.131592,90.636734 
	C208.576660,91.180809 207.107666,93.298645 205.393082,91.250557 
	C204.716217,90.442032 205.421951,89.002350 206.318161,88.747261 
	C208.089417,88.243134 209.827423,84.412422 211.937714,88.732925 
z"/>
<path fill="#040605" opacity="1.000000" stroke="none" 
	d="
M271.881348,95.545044 
	C271.487640,95.470215 271.657776,95.162811 271.814667,95.083786 
	C273.105804,91.642639 272.257324,88.186447 272.317474,84.405685 
	C272.095795,83.880913 272.013306,83.730431 271.843048,83.337952 
	C271.919769,83.105721 272.084229,83.116074 272.248718,83.125160 
	C274.416534,83.244881 275.542297,84.836922 274.717010,86.432884 
	C273.192200,89.381500 277.903595,93.914406 271.881348,95.545044 
z"/>
<path fill="#040605" opacity="1.000000" stroke="none" 
	d="
M99.861664,91.873672 
	C100.739235,88.419754 101.726440,85.066345 106.630692,85.040962 
	C108.421852,86.629639 107.332726,87.958389 106.325912,89.668259 
	C104.560341,91.459145 103.081429,93.105598 100.283340,92.227081 
	C99.974113,91.968147 99.898865,91.905502 99.861664,91.873672 
z"/>
<path fill="#040605" opacity="1.000000" stroke="none" 
	d="
M76.645493,122.128632 
	C75.975235,121.876152 75.675491,121.631905 75.186874,121.166061 
	C76.361557,117.676773 76.771477,113.979065 79.680496,111.133331 
	C80.624359,111.400887 81.170021,111.874619 81.564240,112.937164 
	C81.160721,116.787941 79.755310,119.813095 76.645493,122.128632 
z"/>
<path fill="#040605" opacity="1.000000" stroke="none" 
	d="
M59.209362,151.915146 
	C55.827232,151.968597 53.746429,153.895630 51.278103,155.797546 
	C50.933830,151.054092 54.913689,150.386551 58.629669,149.027222 
	C59.302792,149.267029 59.609138,149.534882 60.172279,149.967957 
	C60.462418,150.874542 60.138893,151.431137 59.209362,151.915146 
z"/>
<path fill="#0E140E" opacity="1.000000" stroke="none" 
	d="
M63.586609,177.014023 
	C58.056866,177.015106 52.966297,177.015106 47.875732,177.015106 
	C47.879120,176.760437 47.882511,176.505783 47.885899,176.251114 
	C54.578224,176.251114 61.270550,176.251114 68.282280,176.251114 
	C66.806328,177.500702 65.336723,176.781311 63.586609,177.014023 
z"/>
<path fill="#90CA86" opacity="1.000000" stroke="none" 
	d="
M233.008881,174.011322 
	C232.126190,177.461044 229.864578,180.119888 227.697144,183.183105 
	C227.193527,183.360886 226.952194,183.336716 226.430481,183.080261 
	C225.880600,182.437927 225.697723,181.993271 225.587784,181.144119 
	C225.557281,180.291809 225.581024,179.805328 225.725967,178.965179 
	C226.323303,177.153168 227.950012,176.648438 228.849045,175.044037 
	C229.938919,173.776337 230.901596,173.071609 232.615051,173.725586 
	C232.920502,173.937332 232.979446,173.986633 233.008881,174.011322 
z"/>
<path fill="#90CA86" opacity="1.000000" stroke="none" 
	d="
M220.758636,190.282349 
	C221.275360,188.893219 221.582397,187.785858 221.960144,186.340744 
	C222.509888,183.675949 223.653687,182.165680 226.636993,182.742081 
	C226.960785,182.966370 227.197815,183.175705 227.316330,183.280380 
	C225.495895,185.863571 223.556931,188.342072 221.310806,190.960052 
	C220.852066,190.921036 220.700516,190.742569 220.758636,190.282349 
z"/>
<path fill="#040605" opacity="1.000000" stroke="none" 
	d="
M65.754349,135.874573 
	C65.364288,138.490707 64.461403,140.819611 62.290710,142.824417 
	C62.406303,140.220810 60.732956,136.439651 65.754349,135.874573 
z"/>
<path fill="#859D82" opacity="1.000000" stroke="none" 
	d="
M48.426350,174.187271 
	C47.985409,174.011810 48.044037,173.755341 48.094688,173.633942 
	C48.565952,173.305878 49.007660,173.239410 49.761402,173.496292 
	C55.348469,173.789581 60.644588,173.899628 66.321182,174.074158 
	C60.772156,175.429840 54.820297,174.941986 48.426350,174.187271 
z"/>
<path fill="#80B47B" opacity="1.000000" stroke="none" 
	d="
M204.783035,201.320724 
	C205.900833,201.141922 206.799088,201.162613 208.144104,201.229340 
	C206.618546,203.220459 203.967377,203.868607 201.227142,204.973495 
	C201.284012,202.943069 203.326935,202.657227 204.783035,201.320724 
z"/>
<path fill="#9AD495" opacity="1.000000" stroke="none" 
	d="
M244.740067,94.016273 
	C245.166733,94.203453 245.119049,94.377357 245.009003,94.814560 
	C242.041824,95.460861 239.137054,95.843857 235.841980,96.223663 
	C234.891464,96.485603 234.306641,96.561607 233.321228,96.198746 
	C236.244232,92.540192 240.481308,94.588310 244.740067,94.016273 
z"/>
<path fill="#0E140E" opacity="1.000000" stroke="none" 
	d="
M227.197449,85.255707 
	C229.033890,83.134613 231.443146,82.076904 234.646484,82.027695 
	C235.175415,82.193748 235.320160,82.357689 235.593552,82.827454 
	C235.778290,83.585274 235.731995,84.027985 235.416260,84.751541 
	C233.535110,85.762527 231.613571,85.530998 229.587250,86.366478 
	C228.488983,86.431450 227.946976,86.004990 227.197449,85.255707 
z"/>
<path fill="#87BA81" opacity="1.000000" stroke="none" 
	d="
M171.722168,206.750870 
	C171.415070,207.065063 170.817780,207.132294 169.776062,207.275299 
	C167.579208,206.924179 165.826782,206.497314 163.805008,205.869690 
	C166.289383,204.797119 168.963470,204.678436 171.722168,206.750870 
z"/>
<path fill="#090E09" opacity="1.000000" stroke="none" 
	d="
M105.245026,89.268791 
	C105.606247,87.883812 106.207031,86.754646 106.909760,85.320724 
	C108.274864,84.939438 109.509621,84.936752 110.393967,86.590141 
	C110.585434,87.155266 110.619125,87.386024 110.564827,87.955856 
	C110.337975,88.482887 110.199104,88.670822 109.771393,89.057083 
	C108.167885,89.612221 106.889534,90.508377 105.245026,89.268791 
z"/>
<path fill="#9AD495" opacity="1.000000" stroke="none" 
	d="
M104.220749,194.382233 
	C104.503571,191.819626 105.751160,189.667465 108.947128,189.127914 
	C107.642006,190.914993 106.095345,192.576431 104.220749,194.382233 
z"/>
<path fill="#88B783" opacity="1.000000" stroke="none" 
	d="
M114.258507,182.829773 
	C113.691444,180.938324 114.789307,179.339264 115.892372,177.374634 
	C116.399643,177.025269 116.798477,177.006454 117.496689,176.986740 
	C117.297684,179.213181 115.902313,180.923981 114.258507,182.829773 
z"/>
<path fill="#0B110B" opacity="1.000000" stroke="none" 
	d="
M123.676025,81.120514 
	C124.066360,81.062004 124.038010,81.487228 124.026047,81.699982 
	C124.234413,82.129219 124.454750,82.345711 124.394760,82.931129 
	C123.599045,83.528656 123.083641,83.757256 122.269608,83.926743 
	C121.808350,83.774811 121.645737,83.681992 121.250610,83.746719 
	C120.600235,84.017838 120.182358,84.131424 119.439171,84.235992 
	C118.151634,84.016640 117.176445,83.825958 116.911774,82.356476 
	C119.102692,81.729080 121.194183,81.454048 123.676025,81.120514 
z"/>
<path fill="#90C589" opacity="1.000000" stroke="none" 
	d="
M141.743591,191.655792 
	C144.098160,190.906586 145.989807,191.296875 145.814667,194.892151 
	C144.489578,194.179092 143.198456,193.056320 141.743591,191.655792 
z"/>
<path fill="#87BA81" opacity="1.000000" stroke="none" 
	d="
M232.588684,95.974953 
	C233.505920,95.982193 234.066666,96.015434 235.039551,96.134575 
	C233.558777,96.856544 231.665848,97.492622 229.383240,98.131157 
	C229.465103,96.499458 230.721603,96.057274 232.588684,95.974953 
z"/>
<path fill="#90CA86" opacity="1.000000" stroke="none" 
	d="
M197.890472,143.715302 
	C198.966629,146.502960 197.208572,147.480682 194.395325,147.952301 
	C195.235458,146.614075 196.442368,145.254013 197.890472,143.715302 
z"/>
<path fill="#040605" opacity="1.000000" stroke="none" 
	d="
M39.327290,170.017792 
	C39.751350,170.738861 39.857128,171.490021 40.005272,172.619644 
	C38.858978,172.786240 37.096039,173.489014 36.858349,171.627960 
	C36.709450,170.462112 38.042278,170.262741 39.327290,170.017792 
z"/>
<path fill="#80B47B" opacity="1.000000" stroke="none" 
	d="
M110.144104,88.151192 
	C109.865807,87.451279 110.040543,87.248260 110.456497,87.034729 
	C110.736053,86.934715 110.920349,86.944908 111.366531,86.865234 
	C111.314384,85.192589 112.400246,85.376709 113.689636,85.556992 
	C114.018394,85.711220 114.467224,85.710693 114.688301,85.749008 
	C114.918549,85.974464 114.927719,86.161598 114.943237,86.629700 
	C114.399361,90.063965 112.430435,89.320396 110.144104,88.151192 
z"/>
<path fill="#040605" opacity="1.000000" stroke="none" 
	d="
M116.701660,82.131241 
	C117.582809,82.586891 118.154427,83.169670 118.919945,83.989716 
	C117.995987,84.538406 116.878113,84.849838 115.406113,85.146828 
	C115.090004,83.983810 115.212196,82.874481 116.701660,82.131241 
z"/>
<path fill="#040605" opacity="1.000000" stroke="none" 
	d="
M252.130920,95.935349 
	C253.406342,95.515083 254.789276,95.448936 256.575867,95.490265 
	C255.778778,98.430351 254.216980,98.788078 252.130920,95.935349 
z"/>
<path fill="#8BCF82" opacity="1.000000" stroke="none" 
	d="
M107.801216,173.733673 
	C107.220383,175.532684 106.602089,177.248703 104.365341,177.977661 
	C104.033119,177.877274 104.013985,177.674500 103.969925,177.167206 
	C104.751717,175.614960 105.558449,174.367249 106.659622,172.987061 
	C107.309433,172.954269 107.528717,173.188324 107.801216,173.733673 
z"/>
<path fill="#8BBB85" opacity="1.000000" stroke="none" 
	d="
M108.076866,173.631363 
	C107.702797,173.734299 107.459938,173.511002 107.099007,173.056519 
	C107.064461,172.469681 107.174843,172.084763 107.386826,171.416321 
	C108.120750,170.144867 108.753075,169.156937 109.644989,168.024139 
	C109.944847,168.362595 109.985100,168.845963 110.048782,169.693359 
	C109.441879,171.149734 108.811546,172.242035 108.076866,173.631363 
z"/>
<path fill="#80B47B" opacity="1.000000" stroke="none" 
	d="
M195.355377,206.908600 
	C195.610474,205.204987 196.841003,204.932709 198.675842,205.559174 
	C197.867584,206.105667 196.786209,206.508911 195.355377,206.908600 
z"/>
<path fill="#040605" opacity="1.000000" stroke="none" 
	d="
M266.534180,98.524399 
	C265.330963,99.868530 264.901459,98.712021 264.378876,98.008072 
	C264.298340,97.899574 264.545258,97.330605 264.717407,97.288559 
	C265.589600,97.075493 266.261322,97.371643 266.534180,98.524399 
z"/>
<path fill="#050705" opacity="1.000000" stroke="none" 
	d="
M85.689468,105.091141 
	C86.257271,106.921089 84.596458,107.635078 83.327454,108.921875 
	C83.030380,107.298447 83.414955,105.769722 85.689468,105.091141 
z"/>
<path fill="#040605" opacity="1.000000" stroke="none" 
	d="
M216.885345,85.716980 
	C216.052582,85.794586 215.103027,85.595245 214.166107,85.348053 
	C214.144669,85.342392 214.172104,84.615723 214.335938,84.530159 
	C215.440323,83.953331 216.200790,84.474518 216.885345,85.716980 
z"/>
<path fill="#040605" opacity="1.000000" stroke="none" 
	d="
M240.911819,97.295486 
	C242.164948,97.143478 243.250259,97.143478 245.557846,97.143478 
	C243.103485,98.060455 241.909149,98.397652 240.911819,97.295486 
z"/>
<path fill="#88B783" opacity="1.000000" stroke="none" 
	d="
M221.411942,102.082062 
	C221.434479,100.759171 222.372223,100.147820 224.134216,100.146950 
	C223.586929,100.779732 222.664169,101.397858 221.411942,102.082062 
z"/>
<path fill="#87BA81" opacity="1.000000" stroke="none" 
	d="
M158.419235,203.649536 
	C159.498245,203.160233 160.790329,203.061966 161.841919,204.737915 
	C160.895050,204.692627 159.782684,204.299820 158.419235,203.649536 
z"/>
<path fill="#090E09" opacity="1.000000" stroke="none" 
	d="
M113.845078,85.429611 
	C113.391243,86.022728 112.764091,86.334236 111.882675,86.710556 
	C111.496185,85.211662 111.423355,83.722542 113.845078,85.429611 
z"/>
<path fill="#040605" opacity="1.000000" stroke="none" 
	d="
M269.992065,95.846619 
	C270.413208,95.416229 270.724731,95.316154 271.314667,95.373383 
	C271.606140,96.699005 271.389099,98.000053 269.771942,97.661339 
	C268.785919,97.454811 269.615875,96.613518 269.992065,95.846619 
z"/>
<path fill="#040605" opacity="1.000000" stroke="none" 
	d="
M61.642143,144.037109 
	C61.175987,144.897995 60.364517,145.800873 59.297501,146.872070 
	C59.072006,145.503845 59.557934,144.314423 61.642143,144.037109 
z"/>
<path fill="#87BA81" opacity="1.000000" stroke="none" 
	d="
M225.315811,99.899605 
	C225.481445,98.608315 226.509781,98.115929 228.241730,98.176773 
	C227.631790,98.754211 226.644928,99.306053 225.315811,99.899605 
z"/>
<path fill="#88B783" opacity="1.000000" stroke="none" 
	d="
M215.822479,106.338791 
	C215.402664,105.574417 215.534027,104.785255 216.668427,104.127869 
	C217.174072,103.872620 217.395050,103.758560 217.909485,103.874718 
	C217.500977,104.806252 216.799011,105.507568 215.822479,106.338791 
z"/>
<path fill="#040605" opacity="1.000000" stroke="none" 
	d="
M219.644135,86.013588 
	C219.441483,86.924286 218.695999,87.615829 217.310150,87.939690 
	C217.003555,87.560738 217.002441,87.114693 217.000977,86.334175 
	C217.000610,85.999695 217.000000,86.000000 216.999695,86.000153 
	C217.754959,86.002983 218.510513,86.005661 219.644135,86.013588 
z"/>
<path fill="#040605" opacity="1.000000" stroke="none" 
	d="
M133.681808,76.963043 
	C133.892456,76.882271 134.098587,76.931976 134.304703,76.981682 
	C134.095566,77.018959 133.886414,77.056244 133.681808,76.963043 
z"/>
<path fill="#0E140E" opacity="1.000000" stroke="none" 
	d="
M43.559452,175.405350 
	C43.239544,175.947647 42.533592,176.051788 42.469036,175.597961 
	C42.371845,174.914673 43.061161,175.178864 43.559452,175.405350 
z"/>
<path fill="#040605" opacity="1.000000" stroke="none" 
	d="
M43.805981,157.879028 
	C43.518005,158.288010 43.032475,158.565521 42.266628,158.885544 
	C42.249298,158.152954 42.490303,157.347641 43.805981,157.879028 
z"/>
<path fill="#9AD495" opacity="1.000000" stroke="none" 
	d="
M218.415894,104.059273 
	C217.995773,104.075584 217.788589,104.046227 217.267242,104.001770 
	C217.481613,103.389893 218.010147,102.793098 218.838013,102.107849 
	C219.355682,102.237068 219.574020,102.454750 219.502396,103.032684 
	C219.106262,103.682915 218.911743,103.889801 218.415894,104.059273 
z"/>
<path fill="#1C1C1C" opacity="1.000000" stroke="none" 
	d="
M235.445038,83.227730 
	C235.034790,82.957626 235.027710,82.493439 235.029190,82.261627 
	C236.093536,82.024826 237.156418,82.019836 238.618744,82.016281 
	C239.018219,82.017723 239.000534,82.000275 238.992218,81.990982 
	C238.954193,82.207130 238.924469,82.432579 238.841812,82.996132 
	C238.788864,83.334244 238.650162,83.267395 238.663391,83.191544 
	C237.784637,83.600815 236.862839,83.865974 235.445038,83.227730 
z"/>
<path fill="#88B783" opacity="1.000000" stroke="none" 
	d="
M213.711945,108.308182 
	C213.456284,107.482048 213.706467,106.706680 215.137100,106.532578 
	C214.965805,107.083717 214.463379,107.631004 213.711945,108.308182 
z"/>
<path fill="#90C589" opacity="1.000000" stroke="none" 
	d="
M141.603363,189.047668 
	C141.912399,189.563614 141.845413,190.094162 141.695618,191.018372 
	C141.045456,190.864029 140.478104,190.316010 139.818878,189.482574 
	C140.227112,189.152191 140.727219,189.107224 141.603363,189.047668 
z"/>
<path fill="#90C589" opacity="1.000000" stroke="none" 
	d="
M138.029144,187.314850 
	C138.819550,187.265198 139.522476,187.686050 139.768326,188.969513 
	C139.242386,188.729858 138.672256,188.170685 138.029144,187.314850 
z"/>
<path fill="#88B783" opacity="1.000000" stroke="none" 
	d="
M211.942093,110.330917 
	C211.555588,109.537239 211.708588,108.763062 213.120651,108.473236 
	C213.020248,109.028458 212.593307,109.604118 211.942093,110.330917 
z"/>
<path fill="#040605" opacity="1.000000" stroke="none" 
	d="
M226.726257,84.997276 
	C227.474686,85.142197 227.994965,85.282394 228.747513,85.560562 
	C228.749878,86.239014 228.342346,86.483948 227.418304,86.235764 
	C226.818527,85.834778 226.573227,85.614044 226.192642,85.179993 
	C226.041809,84.983971 226.498123,84.992554 226.726257,84.997276 
z"/>
<path fill="#050705" opacity="1.000000" stroke="none" 
	d="
M81.492439,112.669128 
	C80.772102,112.560867 80.506912,112.044731 80.119942,111.265099 
	C80.402283,110.996941 80.806396,110.992279 81.513580,110.990356 
	C81.860291,111.415817 81.903938,111.838539 81.492439,112.669128 
z"/>
<path fill="#1C1C1C" opacity="1.000000" stroke="none" 
	d="
M152.765533,85.042404 
	C152.557373,85.279610 152.059738,85.573784 151.276550,85.931313 
	C151.486008,85.696243 151.981033,85.397812 152.765533,85.042404 
z"/>
<path fill="#88B783" opacity="1.000000" stroke="none" 
	d="
M219.504044,103.322052 
	C219.193787,103.164268 219.175140,102.935585 219.146942,102.363152 
	C219.583633,102.030769 220.029907,102.042137 220.811737,102.080978 
	C220.696747,102.489349 220.246216,102.870255 219.504044,103.322052 
z"/>
<path fill="#050705" opacity="1.000000" stroke="none" 
	d="
M88.952904,102.224541 
	C88.993065,102.390579 88.819191,102.724304 88.371094,103.163467 
	C88.310867,102.976685 88.524864,102.684456 88.952904,102.224541 
z"/>
<path fill="#87BA81" opacity="1.000000" stroke="none" 
	d="
M163.042358,205.589417 
	C162.986816,205.487152 163.193207,205.247467 163.193207,205.247467 
	C163.193207,205.247467 163.378387,205.398163 163.348129,205.506851 
	C163.317871,205.615540 163.097916,205.691666 163.042358,205.589417 
z"/>
<path fill="#050705" opacity="1.000000" stroke="none" 
	d="
M88.042015,103.247330 
	C88.079399,103.423363 87.883942,103.776291 87.403145,104.242233 
	C87.348267,104.044907 87.578720,103.734566 88.042015,103.247330 
z"/>
<path fill="#8BCF82" opacity="1.000000" stroke="none" 
	d="
M220.861389,190.242401 
	C220.974960,190.183731 220.981583,190.366867 220.995926,190.824768 
	C221.003632,191.099518 220.963837,191.398514 220.828903,191.466553 
	C220.714142,191.184464 220.734299,190.834351 220.861389,190.242401 
z"/>
<path fill="#050605" opacity="1.000000" stroke="none" 
	d="
M236.269745,144.655579 
	C232.158936,149.764236 229.758438,155.489914 226.882294,161.611786 
	C226.985275,162.873901 226.989243,163.502487 226.969650,164.454483 
	C226.926529,164.988220 226.884354,165.200012 226.727722,165.716049 
	C226.183456,167.004791 225.174149,167.588959 224.721985,168.931366 
	C224.578278,169.453857 224.528198,169.667603 224.341461,170.185608 
	C223.429184,171.562393 222.298813,172.362274 221.656189,173.949982 
	C221.450806,174.478745 221.375305,174.694336 221.109543,175.196564 
	C218.701553,178.104599 215.922134,180.143417 213.257370,182.788147 
	C212.972824,182.980026 212.997528,182.964569 212.982300,182.960297 
	C212.556366,183.597458 212.190964,184.279022 211.260376,184.841095 
	C211.050903,185.036926 211.002014,185.000229 211.019562,185.025177 
	C210.504776,185.584717 210.175781,186.322327 209.199203,186.810181 
	C208.960312,186.968399 209.001221,186.998444 208.983780,186.979477 
	C198.051727,197.188446 185.258316,199.628983 170.920914,196.508774 
	C160.867691,194.320923 153.700394,187.789688 146.172791,180.985260 
	C145.687683,180.565521 145.495178,180.396332 145.088287,179.909439 
	C144.527740,178.637436 144.187454,177.682068 144.450516,176.275513 
	C144.789124,175.825226 145.020477,175.737061 145.614258,175.567764 
	C152.211990,175.771240 158.362259,176.892960 164.704147,176.113998 
	C173.093750,175.083542 180.599976,172.209946 187.531952,167.499359 
	C192.051880,164.427811 196.073624,160.738953 200.739380,157.247253 
	C201.076355,157.060303 201.004532,157.004288 201.033661,157.039291 
	C201.790939,155.428497 202.991089,154.228699 204.855469,153.245682 
	C205.153061,153.116058 205.064362,153.061081 205.090363,153.106323 
	C205.899567,151.945419 206.456100,150.479706 208.453842,150.191284 
	C208.665527,149.960510 209.014954,149.747070 209.077301,149.552063 
	C211.966324,145.724731 214.849258,142.156433 219.565704,140.152298 
	C219.805328,139.903580 219.994934,139.553818 220.015869,139.356003 
	C220.650986,138.523270 221.312973,137.923996 221.807358,136.774994 
	C223.169418,135.324387 224.641937,134.751038 226.518402,134.276810 
	C227.053482,134.209137 227.266800,134.201630 227.790741,134.235947 
	C228.304260,134.313385 228.507172,134.348999 229.018723,134.414902 
	C229.536514,134.453339 229.745651,134.461472 230.280121,134.468170 
	C230.831680,134.457458 231.057907,134.448181 231.634277,134.414001 
	C237.510529,133.179031 237.708618,133.307175 239.348785,139.518372 
	C239.514267,142.065231 238.374313,143.473267 236.269745,144.655579 
z"/>
<path fill="#87BA81" opacity="1.000000" stroke="none" 
	d="
M200.724823,157.112946 
	C186.150421,172.588333 168.826431,181.189987 146.333069,175.688354 
	C146.462723,175.050964 146.948776,174.615295 147.682617,174.118103 
	C148.547577,174.037430 149.110901,174.190765 149.814362,174.788574 
	C162.640350,175.691025 174.901810,174.931030 185.866562,167.494019 
	C190.784882,164.158081 194.833099,159.611862 200.724823,157.112946 
z"/>
<path fill="#83D17A" opacity="1.000000" stroke="none" 
	d="
M228.006943,135.794312 
	C226.367905,136.544861 224.993378,137.205063 223.294647,137.921310 
	C222.296173,138.541336 221.529541,138.654434 220.353821,138.225586 
	C216.996902,138.352203 213.992310,138.676346 213.028198,134.332428 
	C213.520172,131.292908 217.048004,131.389236 217.822083,128.555786 
	C218.658981,128.184723 219.435776,128.124603 220.600540,128.060699 
	C222.402649,129.208603 223.948181,128.944321 225.591034,128.649292 
	C229.935669,127.869110 230.716080,128.560898 231.150696,133.665588 
	C230.946243,134.586899 230.654007,135.020081 229.873627,135.194580 
	C229.517181,135.025360 229.339172,135.105408 229.367218,135.198883 
	C229.429901,135.603775 229.464539,135.915176 229.389557,135.769562 
	C229.279968,135.312515 229.329666,135.164337 229.258652,135.131729 
	C228.934509,135.379913 228.631851,135.585648 228.006943,135.794312 
z"/>
<path fill="#90C589" opacity="1.000000" stroke="none" 
	d="
M226.819885,86.290565 
	C227.519241,86.030258 227.959076,86.022308 228.689346,85.856445 
	C230.826813,85.308716 232.673843,84.918892 234.756348,84.264557 
	C235.716309,83.357330 236.599854,83.536453 237.787903,83.785294 
	C247.327499,84.041115 256.525848,84.009018 265.723785,84.056648 
	C267.451508,84.065590 269.405182,83.492050 270.872375,85.661674 
	C261.154663,84.104706 251.229187,84.970909 241.314407,85.433182 
	C231.098907,85.909470 221.964676,89.255600 213.892395,95.603546 
	C212.810684,96.454201 211.096970,96.501190 209.290039,96.933990 
	C213.888519,91.950363 219.881866,88.665321 226.819885,86.290565 
z"/>
<path fill="#90CA86" opacity="1.000000" stroke="none" 
	d="
M219.424026,139.926102 
	C216.460526,142.963364 213.115723,146.023163 209.455292,149.220001 
	C210.727402,144.417542 213.515091,140.741089 219.424026,139.926102 
z"/>
<path fill="#8BCF82" opacity="1.000000" stroke="none" 
	d="
M148.167923,183.686768 
	C146.577682,184.249298 145.128784,184.480865 143.341736,184.858765 
	C141.677643,182.098709 141.199249,179.214828 143.555222,176.233795 
	C144.815063,176.643463 144.822525,177.876404 145.894150,178.701904 
	C146.156784,178.863235 146.004272,178.973404 146.080566,178.922058 
	C146.537979,180.527161 148.099182,181.617294 148.167923,183.686768 
z"/>
<path fill="#1C1C1C" opacity="1.000000" stroke="none" 
	d="
M198.333679,107.953934 
	C198.225784,104.265602 199.869324,101.450531 204.161560,100.280121 
	C202.558701,102.763428 200.581421,105.256622 198.333679,107.953934 
z"/>
<path fill="#90CA86" opacity="1.000000" stroke="none" 
	d="
M152.676636,165.148941 
	C155.034775,165.088501 157.103897,164.996933 159.617615,164.961914 
	C157.635681,167.836578 154.649567,167.224396 151.306778,166.181335 
	C151.282181,165.403351 151.768494,165.151154 152.676636,165.148941 
z"/>
<path fill="#88B783" opacity="1.000000" stroke="none" 
	d="
M142.169342,160.167450 
	C144.124939,161.094650 146.128281,162.379959 148.350311,163.884247 
	C145.825058,164.023254 143.133575,163.850113 142.169342,160.167450 
z"/>
<path fill="#88B783" opacity="1.000000" stroke="none" 
	d="
M135.977631,155.847473 
	C135.880814,154.493332 136.152557,152.925476 137.528152,152.949646 
	C138.076431,152.959290 138.589310,154.982895 139.099335,156.407684 
	C137.898651,157.310959 137.219208,156.083893 135.977631,155.847473 
z"/>
<path fill="#87BA81" opacity="1.000000" stroke="none" 
	d="
M204.794250,153.157654 
	C203.985001,154.349915 202.816940,155.583771 201.355835,156.945953 
	C201.009476,154.757751 202.304916,153.615082 204.794250,153.157654 
z"/>
<path fill="#87BA81" opacity="1.000000" stroke="none" 
	d="
M208.311798,149.975647 
	C207.673645,150.955933 206.681763,151.951355 205.403122,153.049164 
	C205.016068,151.156174 205.953369,150.093658 208.311798,149.975647 
z"/>
<path fill="#90C589" opacity="1.000000" stroke="none" 
	d="
M206.831055,98.186295 
	C207.464310,97.645615 207.937622,97.359993 208.680069,96.988098 
	C208.939880,98.613983 208.318802,99.804703 206.022797,99.897415 
	C205.986359,99.416534 206.328751,98.928947 206.831055,98.186295 
z"/>
<path fill="#88B783" opacity="1.000000" stroke="none" 
	d="
M152.698914,165.008514 
	C152.484055,165.413620 152.002441,165.647186 151.253235,165.924561 
	C150.687546,165.638840 150.389420,165.309311 150.013565,164.767853 
	C150.767929,164.649612 151.600037,164.743286 152.698914,165.008514 
z"/>
<path fill="#88B783" opacity="1.000000" stroke="none" 
	d="
M134.054916,159.708450 
	C134.220856,158.600204 134.737625,157.395111 135.500488,155.969269 
	C135.892883,157.242126 136.173004,158.782166 134.054916,159.708450 
z"/>
<path fill="#87BA81" opacity="1.000000" stroke="none" 
	d="
M146.094391,178.527649 
	C144.957687,178.630936 144.251144,177.911011 143.953064,176.391327 
	C143.878311,176.069962 144.213516,175.972427 144.385651,175.942917 
	C145.049179,176.672958 145.540588,177.432526 146.094391,178.527649 
z"/>
<path fill="#8BCF82" opacity="1.000000" stroke="none" 
	d="
M137.958954,183.676666 
	C137.079819,183.433395 136.380524,182.701599 136.073624,181.313400 
	C137.183014,181.352158 137.828659,182.127441 137.958954,183.676666 
z"/>
<path fill="#90CA86" opacity="1.000000" stroke="none" 
	d="
M161.129395,165.023987 
	C161.693207,164.532150 162.495804,164.231750 163.620178,163.901138 
	C163.569244,165.247910 162.912613,166.081406 161.129395,165.023987 
z"/>
<path fill="#8BCF82" opacity="1.000000" stroke="none" 
	d="
M149.949722,174.757874 
	C149.481110,174.806091 148.934616,174.613297 148.159256,174.238556 
	C148.765167,173.418655 149.433701,173.481842 149.949722,174.757874 
z"/>
<path fill="#8BCF82" opacity="1.000000" stroke="none" 
	d="
M135.898468,180.705963 
	C135.398758,180.510147 134.805542,180.032852 134.129547,179.267517 
	C134.632843,179.461136 135.218918,179.942795 135.898468,180.705963 
z"/>
<path fill="#88B783" opacity="1.000000" stroke="none" 
	d="
M140.166321,157.817719 
	C140.724884,158.074280 141.344437,158.676392 142.079193,159.583984 
	C141.233658,159.661697 140.490921,159.185471 140.166321,157.817719 
z"/>
<path fill="#88B783" opacity="1.000000" stroke="none" 
	d="
M133.915588,162.494385 
	C133.504959,162.918533 133.106537,162.950638 132.407654,162.995209 
	C132.499344,162.056717 132.891479,161.105774 133.518036,159.948792 
	C133.810898,160.529266 133.869339,161.315796 133.915588,162.494385 
z"/>
<path fill="#90CA86" opacity="1.000000" stroke="none" 
	d="
M220.015778,138.295502 
	C220.750610,138.000885 221.490036,137.993881 222.599945,137.982117 
	C222.469711,139.040771 221.667786,139.429352 220.283615,139.112335 
	C220.031326,138.966492 220.025864,138.774811 220.015778,138.295502 
z"/>
<path fill="#8BCF82" opacity="1.000000" stroke="none" 
	d="
M144.508270,173.508148 
	C144.486877,173.516006 144.529678,173.500305 144.508270,173.508148 
z"/>
<path fill="#83D17A" opacity="1.000000" stroke="none" 
	d="
M210.032379,137.052444 
	C210.010147,136.989838 210.054626,137.115051 210.032379,137.052444 
z"/>
<path fill="#83D17A" opacity="1.000000" stroke="none" 
	d="
M209.278656,136.996643 
	C209.202896,136.726837 209.397797,136.488602 209.804871,136.130203 
	C209.988342,136.150513 209.993179,136.318420 210.004089,136.738083 
	C210.010147,136.989838 210.000122,136.999878 209.995087,137.004913 
	C209.990051,137.009949 209.515793,137.000763 209.278656,136.996643 
z"/>
<path fill="#85D47B" opacity="1.000000" stroke="none" 
	d="
M109.841568,87.775558 
	C111.368057,87.967903 112.891762,88.101898 114.641724,87.126854 
	C119.175728,87.372208 122.989243,85.146881 127.115334,85.023056 
	C134.043182,84.815132 140.903748,85.144997 147.568741,87.406120 
	C149.080643,87.919037 150.810104,87.790627 152.884094,87.927872 
	C155.830582,89.004753 158.332397,90.111176 161.110703,91.430023 
	C169.427155,98.280754 176.845901,105.429955 180.934418,115.714828 
	C182.935226,119.793732 182.715485,123.347763 180.373276,126.868073 
	C179.176575,128.666672 178.591415,130.795258 177.734131,132.776489 
	C176.669266,135.237427 174.994919,135.974976 172.203613,134.361023 
	C171.838150,134.093704 171.910980,134.095291 171.908478,134.131622 
	C171.629959,133.402100 171.199448,132.759155 170.235779,132.169571 
	C170.006042,131.981491 170.005585,131.994308 170.011887,131.994812 
	C166.018494,127.584946 161.466644,125.095955 155.090790,125.803185 
	C148.741302,126.507492 143.972534,129.168457 140.154495,134.131516 
	C139.366882,135.155334 138.550858,136.784668 136.366409,136.272873 
	C135.630920,135.564499 135.095230,135.112167 134.791794,134.537247 
	C132.291870,129.800278 132.304932,129.793381 129.231216,134.197037 
	C126.306656,138.386993 121.320198,137.685577 118.240578,132.031464 
	C119.073265,130.362411 121.589302,130.941254 121.048828,128.222336 
	C122.865753,125.318947 125.160843,123.278496 127.830055,121.096069 
	C128.354095,120.785126 128.581879,120.692307 129.175903,120.558273 
	C134.406784,118.041534 140.767776,119.834579 145.175323,114.983170 
	C151.451645,114.426300 157.406586,114.051598 163.351822,115.051270 
	C164.194855,115.193024 165.405624,115.873680 165.541656,113.973038 
	C165.268311,113.576332 165.135651,113.426338 164.837784,113.015343 
	C164.336044,111.749023 163.847534,110.842270 162.728760,109.986374 
	C162.266785,109.694893 162.072952,109.587364 161.620911,109.263268 
	C161.219650,108.871712 161.076584,108.696724 160.775375,108.222961 
	C160.558319,107.709259 160.499420,107.494339 160.338531,106.964172 
	C159.587769,105.264702 159.007721,103.814270 156.898163,103.486816 
	C156.354370,103.415688 156.137512,103.379753 155.607056,103.238800 
	C154.541611,102.708527 154.001740,101.975029 152.856308,101.562759 
	C152.337509,101.378662 152.128830,101.302994 151.636185,101.051094 
	C149.019638,99.200668 146.772232,97.307381 143.226501,97.849335 
	C142.643951,97.807381 142.411926,97.767738 141.844345,97.615463 
	C140.490128,97.076164 139.670807,96.119514 138.047775,96.346733 
	C132.497025,95.161736 127.421890,95.462090 122.155693,97.696968 
	C120.948608,98.321922 120.010429,98.612206 118.727707,98.973709 
	C117.510735,99.236130 116.640823,99.439758 115.473961,99.773056 
	C114.968559,99.933868 114.766647,99.992363 114.264069,100.125778 
	C113.205627,100.366508 112.428970,100.469757 111.488495,101.034576 
	C111.053505,101.301941 110.872398,101.406021 110.406662,101.655319 
	C109.565681,102.074692 108.985481,102.304840 108.274628,102.900192 
	C107.925041,103.258148 107.788246,103.402435 107.449051,103.762001 
	C106.845001,104.403175 106.403862,104.791130 105.840179,105.483109 
	C105.097565,106.345985 104.455727,106.879684 103.648514,107.712875 
	C102.924538,108.395309 102.369888,108.764420 101.557121,109.364792 
	C101.074028,109.680847 100.871117,109.794327 100.344818,110.038391 
	C97.881783,110.555435 96.687157,112.049911 95.482414,113.718407 
	C91.884018,118.701958 89.058723,124.122932 86.296432,129.576172 
	C82.344894,137.377182 77.907722,144.891129 73.172157,152.232498 
	C72.179733,153.771027 71.155624,155.265686 70.690079,157.424072 
	C70.602325,157.998245 70.556808,158.226624 70.419800,158.778687 
	C70.224747,159.469772 70.138557,159.840652 70.210464,160.434982 
	C72.617073,162.275009 75.028488,159.555389 77.654800,160.994843 
	C80.026108,163.124451 82.006378,165.121002 81.273987,168.661682 
	C77.906189,168.513046 75.179115,170.056946 72.469986,171.118927 
	C65.406334,173.887878 57.992218,172.441040 50.424294,173.537766 
	C49.627506,173.657822 49.202663,173.636093 48.461586,173.563446 
	C47.411495,172.499451 46.345253,172.168747 45.170238,171.963531 
	C42.141068,171.434509 41.106213,169.210632 41.219879,166.550140 
	C41.344948,163.622711 43.405952,162.488892 46.138584,161.958633 
	C49.883572,161.231934 54.184814,161.256516 55.734352,156.163391 
	C55.755054,155.795227 55.762051,155.847610 55.760841,155.825134 
	C59.277081,154.478516 60.807114,151.311890 62.685001,148.066299 
	C62.752411,147.727356 62.788322,147.808609 62.745316,147.797516 
	C66.977180,143.890686 69.294296,138.647003 71.782524,133.669098 
	C75.115669,127.000870 78.450035,120.315659 81.730141,113.210693 
	C81.925995,112.902756 81.954651,112.935654 81.934563,112.922920 
	C86.285271,109.359070 90.220375,105.443306 92.523819,99.823997 
	C92.488564,99.456520 92.503944,99.466156 92.509880,99.459778 
	C98.415939,96.126793 103.163467,91.030327 109.699005,88.087685 
	C109.889397,87.788292 109.846085,87.797127 109.841568,87.775558 
z"/>
<path fill="#8BBB85" opacity="1.000000" stroke="none" 
	d="
M136.050079,136.488251 
	C137.237640,135.184128 138.830063,134.539795 139.526520,133.364517 
	C143.467117,126.714783 150.441162,125.926270 156.874207,124.238495 
	C160.894470,123.183723 167.796417,127.156425 169.986389,131.631989 
	C167.785110,130.509979 165.761215,128.671539 162.769623,127.893890 
	C162.076736,127.834648 161.753036,127.702477 161.247314,127.328369 
	C159.951019,127.057999 158.875870,126.937263 157.402100,126.896713 
	C156.628006,127.375862 156.169647,127.533028 155.315369,127.227524 
	C154.241745,126.996780 153.481140,126.986862 152.349762,127.075157 
	C151.830521,127.250549 151.682083,127.327728 151.287170,127.357712 
	C143.855835,129.212555 139.906265,134.619492 136.282196,140.877625 
	C136.017609,139.685455 136.029404,138.294159 136.050079,136.488251 
z"/>
<path fill="#8BBB85" opacity="1.000000" stroke="none" 
	d="
M171.873383,134.437866 
	C175.925308,133.699661 180.353073,127.583138 180.941940,121.404152 
	C181.082596,119.928116 180.973572,118.428268 180.979416,116.506973 
	C184.477707,118.631027 184.407730,122.049385 182.760651,125.414688 
	C180.497742,130.038239 177.834396,134.465790 175.198456,139.238373 
	C173.979858,137.773468 172.081848,136.985504 171.873383,134.437866 
z"/>
<path fill="#090E09" opacity="1.000000" stroke="none" 
	d="
M131.188202,151.860413 
	C131.187042,150.834412 131.561478,149.831787 131.984863,148.509796 
	C132.609558,147.499832 132.311432,146.363022 133.565125,145.908356 
	C136.628601,149.326080 136.213394,151.441223 131.188202,151.860413 
z"/>
<path fill="#8BBB85" opacity="1.000000" stroke="none" 
	d="
M133.976593,145.625092 
	C133.438217,146.590225 132.976379,147.211288 132.274185,148.011398 
	C131.803696,145.676773 132.783615,143.764679 135.242447,142.257202 
	C135.072311,143.157257 134.562729,144.219147 133.976593,145.625092 
z"/>
<path fill="#8BBB85" opacity="1.000000" stroke="none" 
	d="
M170.100220,132.264557 
	C170.876846,132.188141 171.537811,132.633957 171.847778,133.857086 
	C171.335449,133.627853 170.764923,133.087753 170.100220,132.264557 
z"/>
<path fill="#090E09" opacity="1.000000" stroke="none" 
	d="
M130.145721,153.755005 
	C130.075745,153.383133 130.199646,152.782288 130.577698,152.002197 
	C130.667770,152.390656 130.503708,152.958344 130.145721,153.755005 
z"/>
<path fill="#090E09" opacity="1.000000" stroke="none" 
	d="
M126.330284,161.793823 
	C126.332657,161.511505 126.505638,161.045013 126.867554,160.409164 
	C126.871292,160.696426 126.686089,161.153030 126.330284,161.793823 
z"/>
<path fill="#010101" opacity="1.000000" stroke="none" 
	d="
M155.184189,127.147469 
	C155.448944,126.939911 155.895538,126.873131 156.672791,126.891617 
	C156.522568,127.422096 156.007874,127.689507 155.184189,127.147469 
z"/>
<path fill="#010101" opacity="1.000000" stroke="none" 
	d="
M151.160675,127.358734 
	C151.040680,127.310524 151.490921,127.112480 151.734940,127.142929 
	C151.781601,127.372917 151.548843,127.450775 151.160675,127.358734 
z"/>
<path fill="#010101" opacity="1.000000" stroke="none" 
	d="
M161.245941,127.324188 
	C161.388824,127.255074 161.751495,127.331413 162.274109,127.647659 
	C162.111282,127.748260 161.788513,127.608948 161.245941,127.324188 
z"/>
<path fill="#090E09" opacity="1.000000" stroke="none" 
	d="
M127.264091,159.777313 
	C127.185287,159.622910 127.268013,159.250565 127.601830,158.721558 
	C127.710487,158.896393 127.568047,159.227875 127.264091,159.777313 
z"/>
<path fill="#050705" opacity="1.000000" stroke="none" 
	d="
M116.749634,96.885101 
	C117.940887,97.020607 118.833221,96.933754 119.911972,96.559921 
	C122.633972,93.691246 125.897087,94.655678 128.908249,94.525681 
	C131.682083,94.405937 134.465240,94.498268 137.679688,94.507812 
	C139.270981,94.647362 140.363953,94.977180 141.679077,95.862549 
	C141.981750,96.166626 142.137329,96.342278 142.244141,96.293732 
	C146.112045,96.334023 149.101791,98.661850 152.492889,100.136909 
	C152.466553,100.525551 152.518295,100.643295 152.580566,100.627220 
	C153.685623,100.867241 154.795624,100.959587 155.532440,102.140701 
	C155.474747,102.460747 155.505493,102.571236 155.562561,102.565552 
	C158.062515,103.229820 160.153244,104.380882 161.367691,107.087624 
	C161.386063,107.421127 161.391556,107.556717 161.458923,107.564781 
	C162.019089,107.206703 162.428864,107.283829 162.580048,108.138702 
	C162.404312,108.474258 162.397766,108.561279 162.439178,108.575012 
	C164.393265,108.762398 164.276154,110.849129 165.481094,112.062645 
	C165.522247,112.396690 165.576569,112.403236 165.569244,112.429596 
	C167.044601,113.069550 167.639603,114.342720 167.066528,115.664772 
	C166.334961,117.352402 164.827667,116.463455 163.582947,116.173042 
	C157.185699,114.680511 150.787918,114.287239 144.046188,116.375458 
	C139.297394,119.314568 133.706665,118.654266 128.991974,121.524002 
	C128.613434,121.462341 128.665482,121.423180 128.631470,121.428619 
	C122.800850,126.449432 116.737114,131.123047 110.192825,135.754684 
	C109.883072,135.931213 109.950500,135.946091 109.948730,135.911621 
	C109.583046,136.612427 109.165848,137.300980 108.116486,137.819855 
	C105.976784,139.695053 104.099228,141.415314 102.072433,143.415405 
	C100.660606,146.243713 98.211937,147.608078 95.872093,149.366699 
	C95.534317,149.315094 95.353531,149.324310 95.345856,149.414490 
	C91.225739,154.540985 85.094131,156.897858 79.885101,161.103104 
	C78.827919,161.595139 78.062187,161.557449 76.903610,161.505341 
	C74.039391,161.204773 71.916138,162.742935 69.121155,162.722870 
	C67.076164,161.366959 66.734039,160.002670 68.718140,158.255280 
	C69.084137,158.048309 69.014160,158.009964 69.037384,158.042389 
	C77.712021,144.973938 84.621658,130.880585 92.327469,117.240898 
	C94.217369,113.895691 96.695396,111.027710 99.798996,108.235001 
	C100.116913,108.061531 100.049446,108.047958 100.051544,108.082306 
	C100.419487,107.387833 100.831642,106.699875 101.885918,106.199814 
	C102.725113,105.654999 103.297279,105.253296 103.979462,104.608124 
	C104.344841,103.428123 104.821289,102.671707 106.091476,102.434822 
	C106.412071,102.568909 106.512688,102.656044 106.562416,102.611816 
	C106.553024,100.426857 108.341270,100.801826 109.908569,100.310928 
	C110.256363,100.219551 110.173172,100.206245 110.170029,100.248253 
	C110.815018,98.754555 112.257881,98.650810 113.948898,98.317017 
	C114.289589,98.253677 114.164719,98.229866 114.156479,98.292885 
	C114.557991,97.305038 115.569725,97.072784 116.749634,96.885101 
z"/>
<path fill="#7FCF76" opacity="1.000000" stroke="none" 
	d="
M76.449020,160.636169 
	C77.052177,159.918228 77.429176,159.716949 78.007713,159.609894 
	C81.141747,159.791779 83.125862,156.520340 86.621231,157.699814 
	C89.505852,157.959610 92.066879,157.918167 93.862015,160.784729 
	C93.502243,164.304962 90.012001,164.349640 88.140808,166.628922 
	C85.631683,166.780594 83.739502,167.964386 81.400497,168.905960 
	C79.732590,166.902618 77.592545,165.311234 77.129822,162.308929 
	C76.732399,161.705887 76.477623,161.429367 76.449020,160.636169 
z"/>
<path fill="#90C589" opacity="1.000000" stroke="none" 
	d="
M110.257309,135.938416 
	C115.070953,130.132553 120.981247,125.248207 128.262283,121.554314 
	C127.588600,124.472595 124.919640,125.952927 122.320648,127.907249 
	C121.044159,129.407578 120.363907,131.078644 118.240433,131.758118 
	C118.004578,131.981934 117.997147,131.994232 117.989319,131.998810 
	C115.210663,132.719269 113.999733,136.343430 110.257309,135.938416 
z"/>
<path fill="#8BBB85" opacity="1.000000" stroke="none" 
	d="
M87.154625,157.705704 
	C84.087837,157.557190 81.995033,160.436768 78.646126,159.762878 
	C84.089211,157.020721 89.598732,153.714676 95.056633,149.676651 
	C94.855217,154.340561 89.569077,154.341339 87.154625,157.705704 
z"/>
<path fill="#8BBB85" opacity="1.000000" stroke="none" 
	d="
M110.218407,167.858887 
	C112.262009,162.878891 114.655090,157.826050 117.072937,152.407684 
	C117.208511,151.906067 117.319328,151.769989 117.682251,151.709671 
	C118.046593,158.301102 114.094315,162.945541 110.218407,167.858887 
z"/>
<path fill="#0E140E" opacity="1.000000" stroke="none" 
	d="
M117.988205,151.437592 
	C117.934349,151.785416 117.518211,151.920853 117.307953,151.981491 
	C115.939468,151.349625 115.379120,150.518021 116.476189,149.314697 
	C117.249634,148.466354 117.599098,147.671127 115.976273,146.973297 
	C115.608192,146.696442 115.497459,146.502350 115.676590,146.139923 
	C115.966461,145.971603 115.999390,146.000610 115.985443,145.984192 
	C116.491615,145.413269 116.826881,144.677414 117.806725,144.177094 
	C118.045082,144.014099 117.998184,143.995224 118.005539,144.019409 
	C118.457176,143.396194 118.832626,142.684418 119.853546,142.183167 
	C120.550964,141.710815 120.998672,141.398163 121.682205,140.975098 
	C122.164803,144.856339 118.859581,147.501572 117.988205,151.437592 
z"/>
<path fill="#88B783" opacity="1.000000" stroke="none" 
	d="
M113.569916,147.968140 
	C111.541451,150.310638 109.146019,152.668701 106.439087,155.164246 
	C106.859032,151.289307 109.391251,149.017990 113.569916,147.968140 
z"/>
<path fill="#8BBB85" opacity="1.000000" stroke="none" 
	d="
M95.890350,149.392242 
	C97.461990,147.546295 99.389656,145.777496 101.620262,143.851974 
	C101.256714,146.825104 99.553627,148.935822 95.890350,149.392242 
z"/>
<path fill="#7FD677" opacity="1.000000" stroke="none" 
	d="
M116.563889,171.831360 
	C116.144463,171.022202 116.106918,170.387054 116.786102,170.008347 
	C116.945198,169.919647 117.489204,170.145676 117.557022,170.334396 
	C117.838547,171.117874 118.021225,171.950485 116.563889,171.831360 
z"/>
<path fill="#88B783" opacity="1.000000" stroke="none" 
	d="
M115.678978,146.056976 
	C115.966461,145.971603 115.833412,146.428589 115.776169,146.659576 
	C115.291718,147.176132 114.864510,147.461716 114.195068,147.841141 
	C114.432381,147.337418 114.911934,146.739883 115.678978,146.056976 
z"/>
<path fill="#88B783" opacity="1.000000" stroke="none" 
	d="
M117.749886,144.091827 
	C117.539261,144.601074 117.033447,145.188034 116.249557,145.871399 
	C116.465897,145.368362 116.960289,144.768951 117.749886,144.091827 
z"/>
<path fill="#88B783" opacity="1.000000" stroke="none" 
	d="
M119.801743,142.106171 
	C119.590820,142.619934 119.078384,143.216385 118.289413,143.928223 
	C118.223091,143.196335 118.652893,142.525192 119.801743,142.106171 
z"/>
<path fill="#90C589" opacity="1.000000" stroke="none" 
	d="
M108.160675,137.882858 
	C108.364197,137.353760 108.874054,136.732727 109.665436,135.994415 
	C109.755470,136.748474 109.372902,137.472046 108.160675,137.882858 
z"/>
<path fill="#0E140E" opacity="1.000000" stroke="none" 
	d="
M121.969185,140.951370 
	C122.151733,140.783447 122.431961,140.400909 122.461990,140.419647 
	C122.999977,140.755081 122.624512,140.995163 122.129639,141.051727 
	C121.918022,140.864685 121.950409,140.923523 121.969185,140.951370 
z"/>
<path fill="#87BA81" opacity="1.000000" stroke="none" 
	d="
M148.258331,184.249054 
	C147.232101,182.606644 146.086060,181.345047 146.146942,179.222565 
	C151.444656,185.164124 157.407547,190.657944 165.195282,193.659332 
	C180.753418,199.655426 195.125702,197.231308 208.637085,187.065170 
	C208.409988,190.173248 205.785995,191.381912 203.358765,192.831024 
	C186.647400,202.808182 165.977005,200.314240 151.900345,187.376846 
	C150.803085,186.368393 149.628647,185.443893 148.258331,184.249054 
z"/>
<path fill="#8BCF82" opacity="1.000000" stroke="none" 
	d="
M226.963806,182.633240 
	C225.508820,183.878448 224.056854,184.790527 222.317856,185.852798 
	C220.772461,184.222092 220.582108,181.486649 217.356781,181.085388 
	C216.334473,178.256729 219.344025,176.964890 219.776825,174.267029 
	C219.980255,173.965210 220.004776,173.997162 219.986237,173.989929 
	C220.520691,173.488861 221.102539,173.038666 222.155273,172.690826 
	C225.292404,172.977478 228.819214,171.246231 230.140137,175.677856 
	C229.744583,177.391037 229.082870,178.454025 227.309937,178.944672 
	C226.491272,179.432251 226.341797,179.938309 226.754303,180.757370 
	C226.957626,181.411346 226.962219,181.855713 226.963806,182.633240 
z"/>
<path fill="#90C589" opacity="1.000000" stroke="none" 
	d="
M219.695160,174.140335 
	C220.051483,176.498703 218.758942,178.479172 217.188660,180.715790 
	C215.880203,181.632858 214.746658,182.252106 213.292969,182.925674 
	C215.118546,180.091827 217.264297,177.203644 219.695160,174.140335 
z"/>
<path fill="#87BA81" opacity="1.000000" stroke="none" 
	d="
M209.253265,186.891785 
	C209.467651,186.394730 209.975006,185.821060 210.759735,185.148758 
	C210.540161,185.638474 210.043182,186.226837 209.253265,186.891785 
z"/>
<path fill="#87BA81" opacity="1.000000" stroke="none" 
	d="
M211.339340,184.940826 
	C211.508591,184.415909 211.966278,183.794891 212.695496,183.064957 
	C212.520630,183.585587 212.074203,184.215149 211.339340,184.940826 
z"/>
<path fill="#7FD677" opacity="1.000000" stroke="none" 
	d="
M257.090515,133.698181 
	C252.879486,135.545044 248.739609,137.381927 247.828842,130.438126 
	C247.708359,129.519516 246.204956,129.521820 244.857208,129.674240 
	C244.526215,129.736176 244.492218,129.243378 244.250427,129.253235 
	C244.098480,129.644867 243.937531,129.914566 243.346558,130.226547 
	C242.857880,130.355362 242.649567,130.375000 242.118805,130.376343 
	C236.802811,130.157166 235.328308,126.689354 234.792679,122.301041 
	C235.023956,122.037422 235.017715,122.023079 235.022522,122.017349 
	C240.721207,118.287697 246.454208,121.544868 251.794556,122.707962 
	C255.035217,123.413765 255.246780,129.413254 259.092926,131.170410 
	C258.462677,131.918304 257.832397,132.666199 257.090515,133.698181 
z"/>
<path fill="#83D17A" opacity="1.000000" stroke="none" 
	d="
M73.486572,206.916962 
	C63.355110,206.972916 53.585926,206.954712 43.331158,206.895523 
	C42.713085,206.647125 42.556286,206.460098 42.234795,206.172256 
	C41.296398,205.399506 41.550205,204.508759 41.795395,203.322479 
	C43.046898,199.874969 45.067360,198.735886 48.398735,198.879349 
	C54.348961,199.135620 60.324921,198.765228 66.278473,198.979919 
	C76.524025,199.349396 85.345177,195.671906 93.548706,189.977951 
	C95.304405,188.759323 96.930237,187.276093 99.522766,186.896027 
	C101.474594,188.751862 101.909470,190.582962 99.663742,192.393326 
	C98.359367,193.444809 97.979607,194.826660 98.827682,196.734344 
	C92.521858,200.283585 86.682709,204.855865 79.033669,205.201035 
	C77.284256,205.279984 75.576027,206.271362 73.486572,206.916962 
z"/>
<path fill="#9AD495" opacity="1.000000" stroke="none" 
	d="
M41.845619,203.194153 
	C42.038696,203.740295 42.040726,204.510468 42.068588,205.665863 
	C41.290150,205.283310 41.089485,204.414719 41.845619,203.194153 
z"/>
<path fill="#83D17A" opacity="1.000000" stroke="none" 
	d="
M230.228638,175.793182 
	C228.532425,172.586365 225.183380,176.584869 223.205353,174.147278 
	C221.711563,172.670944 222.344025,171.175995 222.747040,169.319305 
	C222.941528,168.914062 222.961731,168.978622 222.928711,168.971283 
	C224.063354,168.116211 224.409363,166.864456 224.808197,165.286652 
	C225.056870,164.845932 225.082108,164.647385 225.270569,164.196808 
	C225.912766,163.471924 226.360580,162.974945 226.699127,162.028687 
	C226.740189,161.695648 226.728867,161.669250 226.720978,161.656921 
	C229.580994,161.467438 230.425552,159.253860 231.408463,157.096558 
	C231.886139,156.048141 232.616959,154.913406 233.925812,154.957001 
	C235.512512,155.009857 236.145981,156.467972 236.500366,157.674362 
	C237.584625,161.365570 237.080688,164.978043 235.029785,168.221939 
	C234.039047,169.789017 232.903168,171.204102 232.941193,173.554504 
	C232.098679,174.488968 231.276855,175.040604 230.228638,175.793182 
z"/>
<path fill="#85D47B" opacity="1.000000" stroke="none" 
	d="
M244.374481,136.044952 
	C249.542786,138.984436 246.483719,143.323318 246.869995,147.461319 
	C243.192322,149.336578 241.460800,152.364212 239.942429,156.112991 
	C240.125381,152.394165 234.589371,150.923523 236.905334,146.266754 
	C235.475815,143.829636 238.426758,143.100937 238.471954,141.106140 
	C238.529160,140.564087 238.555557,140.347977 238.704346,139.829803 
	C239.456650,138.395935 240.010559,137.196640 241.651215,136.612640 
	C242.564896,136.410294 243.170212,136.273956 244.374481,136.044952 
z"/>
<path fill="#90C589" opacity="1.000000" stroke="none" 
	d="
M238.657135,139.759827 
	C239.298004,141.982498 238.282974,143.656036 237.110474,145.652954 
	C236.723541,145.727234 236.463867,145.468704 236.040497,144.988739 
	C236.567307,143.448380 237.257797,142.129456 238.021271,140.496582 
	C238.188126,140.001877 238.282028,139.821121 238.657135,139.759827 
z"/>
<path fill="#0E140E" opacity="1.000000" stroke="none" 
	d="
M272.118256,84.483231 
	C273.529907,87.437569 273.286957,90.881523 272.197052,94.672485 
	C272.000458,91.648201 272.029358,88.291634 272.118256,84.483231 
z"/>
<path fill="#010101" opacity="1.000000" stroke="none" 
	d="
M238.296143,83.830818 
	C237.344925,84.028557 236.560577,84.011497 235.384018,83.997238 
	C234.662735,83.755890 233.659271,83.725243 234.862946,83.003922 
	C235.943466,82.992401 236.852142,83.027176 238.218719,83.088821 
	C238.605423,83.282463 238.534225,83.449234 238.296143,83.830818 
z"/>
<path fill="#0E140E" opacity="1.000000" stroke="none" 
	d="
M238.959808,139.909210 
	C238.938370,139.879272 238.513947,140.024414 238.304092,140.103531 
	C237.683441,135.021286 233.734436,135.617004 229.904800,135.206573 
	C229.662445,134.810608 229.840561,134.627899 230.134644,134.303589 
	C231.859711,130.451736 234.835144,129.184464 238.615631,129.755219 
	C239.985596,129.962006 241.218307,129.537354 242.883972,129.699921 
	C243.248398,129.858353 243.680954,129.912628 243.887360,129.842545 
	C244.088104,129.508560 244.082428,129.244644 244.136353,129.372177 
	C244.195938,129.763626 244.369934,129.860062 244.448074,129.798126 
	C245.629700,129.970673 246.505753,130.293335 245.097382,131.741119 
	C244.373657,135.430603 241.430679,137.124588 239.179626,139.752609 
	C238.921890,139.982788 238.981232,139.939163 238.959808,139.909210 
z"/>
<path fill="#9AD495" opacity="1.000000" stroke="none" 
	d="
M239.235413,139.893921 
	C239.680542,136.663681 242.671921,134.947327 244.705933,132.176102 
	C244.995316,133.073471 244.991745,134.128174 244.983078,135.577530 
	C244.977982,135.972183 244.991089,135.991165 244.983887,135.987061 
	C244.457382,136.530991 243.926376,137.067368 243.172592,137.781067 
	C241.825958,138.583649 240.687439,139.194351 239.235413,139.893921 
z"/>
<path fill="#88B783" opacity="1.000000" stroke="none" 
	d="
M81.704529,112.949905 
	C82.060913,114.446808 81.549553,115.831764 80.852203,117.162430 
	C76.192017,126.054932 72.435127,135.406937 67.156563,143.988052 
	C66.185478,145.566711 65.291931,147.103241 63.050652,147.738953 
	C67.499977,139.642334 72.178383,131.434219 76.188507,122.470703 
	C77.788628,119.328201 79.302277,116.536003 80.926605,113.410400 
	C81.037292,113.076996 81.483055,112.997063 81.704529,112.949905 
z"/>
<path fill="#88B783" opacity="1.000000" stroke="none" 
	d="
M62.503208,147.865387 
	C62.662624,151.964767 60.484650,154.588135 56.130157,155.809113 
	C56.731331,154.726440 57.703030,153.650223 58.775635,152.278992 
	C59.299953,151.548080 59.723366,151.112167 60.287922,150.404724 
	C61.037380,149.423264 61.645691,148.713333 62.503208,147.865387 
z"/>
<path fill="#010101" opacity="1.000000" stroke="none" 
	d="
M124.569275,83.258049 
	C124.097519,83.069138 124.080597,82.838226 124.038879,82.260025 
	C128.424820,82.406242 132.930664,81.213989 137.599350,82.921906 
	C133.615433,83.193550 129.319763,83.204796 124.569275,83.258049 
z"/>
<path fill="#010101" opacity="1.000000" stroke="none" 
	d="
M140.372696,83.920547 
	C140.988495,83.590561 141.915604,83.302391 142.858963,83.084778 
	C142.972214,83.058655 143.173752,83.415306 143.334366,83.594543 
	C143.031464,83.701042 142.728546,83.807549 142.202164,83.977066 
	C141.548752,84.021271 141.118835,84.002472 140.372696,83.920547 
z"/>
<path fill="#040605" opacity="1.000000" stroke="none" 
	d="
M121.258270,83.945740 
	C121.234230,83.705956 121.475471,83.649101 121.856400,83.800659 
	C121.970963,83.867622 121.498428,83.987213 121.258270,83.945740 
z"/>
<path fill="#040605" opacity="1.000000" stroke="none" 
	d="
M46.218067,160.177002 
	C46.165665,159.913177 46.427616,159.819748 46.865910,159.940079 
	C46.829914,160.067581 46.659969,160.132095 46.218067,160.177002 
z"/>
<path fill="#87D37C" opacity="1.000000" stroke="none" 
	d="
M243.062286,129.592194 
	C239.144394,131.239136 235.040390,132.619934 230.577072,134.065338 
	C229.568283,131.318573 228.375168,129.311737 224.907822,129.947723 
	C223.629700,130.182159 222.221298,129.994980 221.163666,128.380859 
	C225.847000,127.027321 229.321945,122.909248 234.652115,122.069946 
	C235.512497,123.485214 236.657288,123.886475 238.037598,124.020401 
	C238.793884,124.093773 240.314072,124.457458 239.929901,124.953575 
	C236.284866,129.660614 241.985214,127.852562 243.062286,129.592194 
z"/>
<path fill="#8BBB85" opacity="1.000000" stroke="none" 
	d="
M109.529739,87.844284 
	C105.131744,92.819710 99.675186,96.863922 92.889633,99.506180 
	C94.161827,96.353951 97.799561,95.371155 99.874786,92.295212 
	C101.961777,91.997681 103.271255,90.617676 104.893517,89.334038 
	C106.393669,88.642067 107.781876,88.271172 109.529739,87.844284 
z"/>
<path fill="#83D17A" opacity="1.000000" stroke="none" 
	d="
M226.964172,180.643433 
	C225.582947,181.026581 223.457962,182.488007 223.048355,180.635849 
	C222.558731,178.421738 225.014572,179.322723 226.626770,179.021393 
	C226.984451,179.456879 226.979874,179.888382 226.964172,180.643433 
z"/>
<path fill="#90C589" opacity="1.000000" stroke="none" 
	d="
M222.631287,169.045639 
	C222.959717,170.320312 222.977921,171.726547 222.992218,173.551361 
	C222.233337,173.978195 221.478363,173.986465 220.345551,173.988739 
	C220.752151,172.380875 221.536591,170.779037 222.631287,169.045639 
z"/>
<path fill="#90C589" opacity="1.000000" stroke="none" 
	d="
M224.792694,165.269012 
	C224.952698,166.438995 225.145721,167.942978 223.222488,168.845245 
	C222.874054,167.532745 223.778519,166.544006 224.792694,165.269012 
z"/>
<path fill="#90CA86" opacity="1.000000" stroke="none" 
	d="
M226.516724,161.846649 
	C226.773788,162.481445 226.649918,163.202835 225.681168,163.812317 
	C225.720276,163.295761 226.006760,162.646713 226.516724,161.846649 
z"/>
<path fill="#0E140E" opacity="1.000000" stroke="none" 
	d="
M228.107605,135.695404 
	C228.068878,135.589493 228.395325,135.294312 228.954712,135.049133 
	C228.949356,135.234802 228.711075,135.370483 228.107605,135.695404 
z"/>
<path fill="#0E140E" opacity="1.000000" stroke="none" 
	d="
M229.328369,135.433228 
	C229.279968,135.312515 229.352356,135.337860 229.373810,135.315109 
	C229.395279,135.292358 229.517136,135.625870 229.517136,135.625870 
	C229.517136,135.625870 229.376755,135.553940 229.328369,135.433228 
z"/>
<path fill="#88B783" opacity="1.000000" stroke="none" 
	d="
M99.770752,108.111038 
	C91.176102,118.052467 86.168892,130.394699 79.835838,141.947128 
	C76.818039,147.452072 73.405350,152.713684 69.353584,157.910645 
	C68.999626,156.350510 69.482613,154.756165 70.468269,153.378738 
	C78.894165,141.603806 84.379150,128.147156 91.951744,115.887985 
	C93.866493,112.788231 95.849571,109.686325 99.770752,108.111038 
z"/>
<path fill="#80B47B" opacity="1.000000" stroke="none" 
	d="
M143.299484,116.225784 
	C149.871307,113.394867 156.841278,114.001884 163.815750,115.698631 
	C166.458832,116.341629 167.897888,116.140999 165.709656,112.789825 
	C167.834000,112.585213 169.836517,113.677338 169.302399,116.001396 
	C168.663132,118.783043 166.139725,117.775810 164.320099,117.152199 
	C158.638275,115.204979 152.791351,116.182854 146.550354,115.989662 
	C145.372696,116.658295 144.497147,116.493988 143.299484,116.225784 
z"/>
<path fill="#90C589" opacity="1.000000" stroke="none" 
	d="
M142.561005,115.986572 
	C143.733063,115.986343 144.516495,115.993919 145.694427,116.000839 
	C141.778061,121.486137 135.097565,120.068626 129.039581,121.584244 
	C132.766449,118.730568 137.305313,116.955551 142.561005,115.986572 
z"/>
<path fill="#87D37C" opacity="1.000000" stroke="none" 
	d="
M118.380783,131.999054 
	C118.564026,130.216187 119.755432,129.018005 121.698685,128.119736 
	C122.075981,128.171875 122.180176,128.314270 122.202087,128.468369 
	C122.525581,130.743637 127.418648,129.137848 125.967056,132.258728 
	C124.302246,135.838058 121.851326,132.104218 119.723091,132.105148 
	C119.401077,132.105286 119.079025,132.047272 118.380783,131.999054 
z"/>
<path fill="#9AD495" opacity="1.000000" stroke="none" 
	d="
M139.151215,95.147263 
	C132.901016,95.167473 126.875404,94.678696 120.513000,96.220306 
	C120.872444,93.695442 123.049187,94.020020 124.976044,94.000504 
	C129.419281,93.955521 133.863464,94.003883 138.792511,94.038712 
	C139.313019,94.320274 139.348297,94.577492 139.151215,95.147263 
z"/>
<path fill="#80B47B" opacity="1.000000" stroke="none" 
	d="
M152.393036,100.181335 
	C149.290375,99.258362 146.114197,97.991165 142.644470,96.484581 
	C146.335999,95.604691 149.783569,96.455910 152.393036,100.181335 
z"/>
<path fill="#80B47B" opacity="1.000000" stroke="none" 
	d="
M161.469849,107.042305 
	C159.590134,105.965843 157.794205,104.510559 155.808960,102.807571 
	C159.066849,101.803154 161.232330,102.899933 161.469849,107.042305 
z"/>
<path fill="#90CA86" opacity="1.000000" stroke="none" 
	d="
M76.272629,160.136261 
	C76.729012,160.429764 76.782845,160.740005 76.911926,161.516342 
	C73.755203,161.834183 70.983704,164.655258 67.289017,163.245895 
	C67.234512,162.414169 67.730881,162.103058 68.681099,161.960373 
	C71.571358,162.453583 73.416527,160.133499 76.272629,160.136261 
z"/>
<path fill="#88B783" opacity="1.000000" stroke="none" 
	d="
M68.685860,161.773834 
	C68.510956,162.257492 68.032021,162.572845 67.272400,162.969879 
	C65.522209,160.863998 65.970772,159.235260 68.746658,158.117279 
	C69.077835,159.279022 66.693291,160.040207 68.685860,161.773834 
z"/>
<path fill="#80B47B" opacity="1.000000" stroke="none" 
	d="
M165.561432,112.043381 
	C164.595734,111.313690 163.669205,110.230690 162.611649,108.868225 
	C164.413010,108.724731 165.450043,109.761505 165.561432,112.043381 
z"/>
<path fill="#80B47B" opacity="1.000000" stroke="none" 
	d="
M139.180573,95.650612 
	C138.968796,95.224472 139.018692,94.989136 139.173172,94.408432 
	C140.353271,94.160271 141.316727,94.443481 141.877792,95.866837 
	C141.135254,96.058220 140.288773,95.949821 139.180573,95.650612 
z"/>
<path fill="#90C589" opacity="1.000000" stroke="none" 
	d="
M113.902100,98.207993 
	C113.138344,98.902618 111.987099,99.551559 110.501373,100.245384 
	C110.504181,98.356018 111.847275,98.004112 113.902100,98.207993 
z"/>
<path fill="#90C589" opacity="1.000000" stroke="none" 
	d="
M109.864258,100.176399 
	C109.242027,100.927803 108.227692,101.636063 106.912750,102.455956 
	C106.408783,100.397186 107.764793,100.058830 109.864258,100.176399 
z"/>
<path fill="#80B47B" opacity="1.000000" stroke="none" 
	d="
M155.461456,102.110878 
	C154.649429,101.994263 153.824097,101.527779 152.820801,100.836220 
	C153.854858,100.318825 155.003448,100.181274 155.461456,102.110878 
z"/>
<path fill="#90C589" opacity="1.000000" stroke="none" 
	d="
M116.826660,96.932152 
	C116.299110,97.514503 115.549675,97.921555 114.474236,98.342255 
	C114.598389,97.256477 115.008179,96.095039 116.826660,96.932152 
z"/>
<path fill="#90C589" opacity="1.000000" stroke="none" 
	d="
M106.072853,102.555206 
	C105.813370,103.074745 105.214661,103.580574 104.352715,104.225533 
	C104.291374,103.444763 104.631020,102.649101 106.072853,102.555206 
z"/>
<path fill="#88B783" opacity="1.000000" stroke="none" 
	d="
M101.843506,106.132111 
	C101.642563,106.671341 101.132179,107.285995 100.337723,108.008644 
	C100.246117,107.246864 100.633339,106.528099 101.843506,106.132111 
z"/>
<path fill="#80B47B" opacity="1.000000" stroke="none" 
	d="
M162.336960,108.258438 
	C162.113892,108.387421 161.881744,108.219841 161.617096,107.772186 
	C161.848999,107.610901 162.096756,107.767494 162.336960,108.258438 
z"/>
<path fill="#87D37C" opacity="1.000000" stroke="none" 
	d="
M244.232376,129.662933 
	C244.195938,129.763626 244.146805,129.790283 244.120285,129.781372 
	C244.093765,129.772461 244.176605,129.474777 244.176605,129.474777 
	C244.176605,129.474777 244.268814,129.562256 244.232376,129.662933 
z"/>
<path fill="#8BCF82" opacity="1.000000" stroke="none" 
	d="
M243.254364,137.883759 
	C243.446289,137.374481 243.928085,136.776016 244.693268,136.080261 
	C244.499191,136.586823 244.021713,137.190704 243.254364,137.883759 
z"/>
</svg>